<svg width="92" height="92" viewBox="0 0 92 92" fill="none" xmlns="http://www.w3.org/2000/svg">
<path d="M40.25 63.0947C38.2566 62.8735 36.296 62.42 34.408 61.7434C34.4655 60.3864 34.5 58.9719 34.5 57.4999V57.0399V55.5622C36.2825 56.4132 38.2202 57.0054 40.25 57.2987V43.1249C40.25 40.8374 41.1587 38.6436 42.7762 37.0261C44.3937 35.4086 46.5875 34.4999 48.875 34.4999H63.0487C62.5902 31.3138 61.374 28.2841 59.5024 25.6652C57.6307 23.0463 55.1581 20.9145 52.2922 19.4489C49.4262 17.9832 46.2505 17.2264 43.0316 17.242C39.8126 17.2576 36.6444 18.0451 33.7927 19.5384C33.3379 17.6578 32.5888 15.8608 31.5732 14.2139C35.3008 12.3534 39.4225 11.4204 43.5879 11.4943C47.7533 11.5682 51.8393 12.6468 55.4985 14.6384C59.1577 16.6301 62.2819 19.4758 64.6055 22.9337C66.9291 26.3916 68.3834 30.3595 68.8447 34.4999H77.625C79.9125 34.4999 82.1063 35.4086 83.7238 37.0261C85.3413 38.6436 86.25 40.8374 86.25 43.1249V71.8749C86.25 74.1624 85.3413 76.3562 83.7238 77.9737C82.1063 79.5912 79.9125 80.4999 77.625 80.4999H48.875C46.5875 80.4999 44.3937 79.5912 42.7762 77.9737C41.1587 76.3562 40.25 74.1624 40.25 71.8749V63.0947ZM68.8447 40.2499C68.1914 46.0839 65.5746 51.5225 61.4236 55.6735C57.2726 59.8245 51.8339 62.4414 46 63.0947V71.8749C46 72.6374 46.3029 73.3687 46.8421 73.9079C47.3812 74.447 48.1125 74.7499 48.875 74.7499H77.625C78.3875 74.7499 79.1188 74.447 79.6579 73.9079C80.1971 73.3687 80.5 72.6374 80.5 71.8749V43.1249C80.5 42.3624 80.1971 41.6312 79.6579 41.092C79.1188 40.5528 78.3875 40.2499 77.625 40.2499H68.8447ZM63.0487 40.2499H48.875C48.1125 40.2499 47.3812 40.5528 46.8421 41.092C46.3029 41.6312 46 42.3624 46 43.1249V57.2987C50.3009 56.677 54.2852 54.6807 57.358 51.6079C60.4308 48.5352 62.4271 44.5508 63.0487 40.2499Z" fill="black"/>
<path d="M27.5713 43.4757C26.9675 41.2561 25.99 39.0309 24.311 37.3232C27.025 34.7529 28.75 30.6589 28.75 25.8749C28.75 21.8672 27.9393 19.1129 26.473 16.9107C25.8224 15.9635 25.0705 15.0901 24.2305 14.3059C23.9086 13.9951 23.5827 13.6884 23.253 13.3859C22.9023 13.0582 22.5802 12.7592 22.1605 12.3394C21.298 11.4769 21.2003 10.7869 21.2003 10.4247C21.2012 10.2233 21.2342 10.0234 21.298 9.8324C21.5609 9.26388 21.6309 8.62505 21.4974 8.01307C21.364 7.40109 21.0343 6.84945 20.5585 6.44203C20.0828 6.03461 19.487 5.79371 18.8617 5.75596C18.2365 5.71821 17.6161 5.88568 17.0948 6.2329L17.0833 6.23865L17.066 6.25015L17.0143 6.28465L16.8417 6.39965C15.9792 7.01485 15.1483 7.6731 14.352 8.3719C12.9145 9.64265 11.04 11.5229 9.71175 13.7654C8.55226 15.6245 7.62168 17.617 6.94025 19.6994C6.25025 21.7637 5.75 24.0004 5.75 25.8749C5.75 30.6589 7.475 34.7472 10.189 37.3289C8.51 39.0309 7.5325 41.2561 6.92875 43.4814C5.75 47.8054 5.75 53.1529 5.75 57.2872V57.4999C5.75 69.3334 7.96375 76.3599 10.4707 80.5401C11.73 82.6331 13.041 83.9844 14.1393 84.8354C14.7244 85.2918 15.3613 85.6778 16.0367 85.9854C16.4274 86.128 16.8355 86.217 17.25 86.2499C17.733 86.2499 18.4633 85.9854 18.4633 85.9854C19.1387 85.6778 19.7756 85.2918 20.3607 84.8354C21.4532 83.9844 22.7757 82.6331 24.0292 80.5401C26.5362 76.3656 28.75 69.3334 28.75 57.4999V57.2929C28.75 53.1529 28.75 47.8111 27.5713 43.4757ZM14.3003 41.3482C14.95 40.6926 15.8182 40.2499 17.25 40.2499C18.6875 40.2499 19.55 40.6984 20.1997 41.3424C20.9242 42.0727 21.551 43.2571 22.0225 44.9879C22.977 48.5012 23 53.1127 23 57.4999C23 68.6664 20.9013 74.5774 19.0958 77.5846C18.4058 78.7346 17.756 79.4764 17.25 79.9421C16.527 79.247 15.9057 78.4533 15.4042 77.5846C13.5987 74.5716 11.5 68.6664 11.5 57.4999C11.5 53.1127 11.523 48.5012 12.4775 44.9879C12.949 43.2629 13.5757 42.0727 14.3003 41.3424V41.3482ZM17.25 34.4999C15.0363 34.4999 11.5 32.0389 11.5 25.8749C11.5 24.8802 11.799 23.3047 12.397 21.5222C12.9419 19.8393 13.6932 18.2305 14.6338 16.7324C15.134 15.8872 15.7838 15.0649 16.4853 14.3117C16.882 15.0132 17.4053 15.7204 18.0953 16.4104C18.515 16.8302 19.0612 17.3362 19.527 17.7732L20.24 18.4402C20.8438 19.0267 21.3095 19.5384 21.6832 20.1077C22.3732 21.1369 23 22.6952 23 25.8749C23 32.0389 19.4637 34.4999 17.25 34.4999Z" fill="black"/>
</svg>
