<svg width="87" height="87" viewBox="0 0 87 87" fill="none" xmlns="http://www.w3.org/2000/svg">
<path d="M60.6063 71.601L58.2863 53.0265C57.9576 50.3956 56.679 47.9754 54.6909 46.221C52.7029 44.4666 50.1425 43.499 47.4911 43.5H39.5016C36.8514 43.5007 34.2928 44.4692 32.3063 46.2234C30.3198 47.9776 29.0422 50.3968 28.7136 53.0265L26.39 71.601C26.2624 72.6215 26.3535 73.6574 26.6571 74.64C26.9606 75.6226 27.4698 76.5294 28.1507 77.3001C28.8316 78.0708 29.6686 78.6879 30.6063 79.1103C31.544 79.5327 32.5608 79.7507 33.5892 79.75H53.4107C54.4388 79.7502 55.4552 79.5318 56.3925 79.1092C57.3297 78.6865 58.1664 78.0694 58.8469 77.2988C59.5274 76.5281 60.0362 75.6215 60.3395 74.6391C60.6429 73.6568 60.7338 72.6212 60.6063 71.601V71.601Z" stroke="black" stroke-width="6" stroke-linecap="round" stroke-linejoin="round"/>
<path d="M43.5 29C49.5061 29 54.375 24.1311 54.375 18.125C54.375 12.1189 49.5061 7.25 43.5 7.25C37.4939 7.25 32.625 12.1189 32.625 18.125C32.625 24.1311 37.4939 29 43.5 29Z" stroke="black" stroke-width="6"/>
<path d="M14.5 39.875C18.5041 39.875 21.75 36.6291 21.75 32.625C21.75 28.6209 18.5041 25.375 14.5 25.375C10.4959 25.375 7.25 28.6209 7.25 32.625C7.25 36.6291 10.4959 39.875 14.5 39.875Z" stroke="black" stroke-width="6"/>
<path d="M72.5 39.875C76.5041 39.875 79.75 36.6291 79.75 32.625C79.75 28.6209 76.5041 25.375 72.5 25.375C68.4959 25.375 65.25 28.6209 65.25 32.625C65.25 36.6291 68.4959 39.875 72.5 39.875Z" stroke="black" stroke-width="6"/>
<path d="M14.5 50.75H13.3907C11.6745 50.7498 10.0139 51.3584 8.70424 52.4676C7.39461 53.5767 6.52092 55.1145 6.2386 56.8074L5.03148 64.0574C4.85824 65.0961 4.91338 66.1601 5.19304 67.1754C5.4727 68.1906 5.97017 69.1328 6.65086 69.9363C7.33155 70.7398 8.17911 71.3854 9.13459 71.8281C10.0901 72.2708 11.1305 72.5001 12.1836 72.5H25.375" stroke="black" stroke-width="6" stroke-linecap="round" stroke-linejoin="round"/>
<path d="M72.5 50.75H73.6093C75.3255 50.7498 76.9861 51.3584 78.2957 52.4676C79.6054 53.5767 80.4791 55.1145 80.7614 56.8074L81.9685 64.0574C82.1417 65.0961 82.0866 66.1601 81.8069 67.1754C81.5273 68.1906 81.0298 69.1328 80.3491 69.9363C79.6684 70.7398 78.8209 71.3854 77.8654 71.8281C76.9099 72.2708 75.8695 72.5001 74.8164 72.5H61.625" stroke="black" stroke-width="6" stroke-linecap="round" stroke-linejoin="round"/>
</svg>
