<svg width="60" height="64" viewBox="0 0 60 64" fill="none" xmlns="http://www.w3.org/2000/svg">
<path d="M59.3137 35.2416C59.3752 42.3489 56.7732 49.2215 52.0201 54.506C47.2671 59.7904 40.7075 63.1035 33.6335 63.7927C33.6335 63.7927 15.1975 64.2637 9.09698 63.7927C7.9799 63.6586 6.91823 63.231 6.02001 62.5534C5.1218 61.8758 4.4191 60.9724 3.9834 59.935C4.84158 60.3131 5.76087 60.5334 6.69721 60.5854C8.69328 60.7649 12.1024 60.8546 16.8572 60.8546C23.8324 60.8546 31.4355 60.6527 31.5028 60.6527H31.6374C39.2374 60.0073 46.3047 56.4857 51.3966 50.8067C55.7639 45.9937 58.5302 39.944 59.3137 33.4922V35.2416Z" fill="#273339"/>
<path d="M57.0706 28.9822C57.1255 36.0927 54.5146 42.9657 49.7528 48.2464C44.991 53.5272 38.4237 56.8325 31.3455 57.5109C31.3455 57.5109 12.9095 57.9819 6.80907 57.5109C5.1615 57.2553 3.66332 56.4087 2.59433 55.1292C1.52535 53.8497 0.958675 52.2249 1.00017 50.5581V7.11471C0.979605 5.43934 1.57263 3.81432 2.66744 2.54599C3.76226 1.27765 5.28324 0.453634 6.94365 0.229266C13.0665 -0.286582 31.48 0.229266 31.48 0.229266C38.573 0.942345 45.1395 4.29329 49.879 9.61839C54.6184 14.9435 57.1851 21.8544 57.0706 28.9822Z" fill="#273339"/>
</svg>
