<svg width="30" height="32" viewBox="0 0 30 32" fill="none" xmlns="http://www.w3.org/2000/svg">
<path d="M29.2714 17.538C29.3359 24.8633 23.886 31.1492 16.6327 31.9752C16.4795 31.9922 16.3254 32.0005 16.1713 32C14.7276 32 6.92357 32 4.0411 31.8834C3.47979 31.8163 2.94628 31.6016 2.49487 31.2613C2.04345 30.921 1.69025 30.4672 1.47119 29.9461C1.90259 30.1363 2.36476 30.2473 2.83553 30.2735C3.82777 30.3628 5.57908 30.2735 7.96791 30.2735C10.5105 30.2735 13.2591 30.2958 14.5763 30.3082C15.2792 30.3182 15.9817 30.2642 16.6749 30.147C20.0071 29.5664 23.0465 27.8797 25.3024 25.3594C27.4935 22.94 28.8802 19.9005 29.2714 16.6599V17.538Z" fill="#3770FF"/>
<path d="M28.1154 14.3875C28.1325 17.9721 26.8109 21.434 24.4094 24.0952C22.0079 26.7564 18.6994 28.4253 15.1319 28.7751H2.97692C2.14428 28.6549 1.38355 28.2367 0.836067 27.5979C0.288582 26.9592 -0.00843958 26.1434 0.000182577 25.3022V3.47285C0.000182577 1.73643 1.24049 0 2.97692 0H15.38C18.9248 0.352838 22.2058 2.03074 24.567 4.6982C26.9282 7.36566 28.1954 10.8261 28.1154 14.3875Z" fill="#3770FF"/>
</svg>
