<svg width="63" height="74" viewBox="0 0 63 74" fill="none" xmlns="http://www.w3.org/2000/svg">
<g filter="url(#filter0_i_352_4722)">
<path d="M61.9587 13.8982C61.2615 11.4956 59.0848 9.66478 56.405 9.22732C53.3125 8.72096 50.2501 10.1281 48.848 12.7047C48.2054 13.8844 47.9962 15.1297 48.1846 16.4352C48.5144 18.7293 50.2237 20.7289 52.6661 21.5763C52.8413 21.6365 53.0185 21.6882 53.2314 21.7571C53.1523 21.7915 53.1071 21.8139 53.0599 21.8312C51.6239 22.3461 50.2539 22.9851 48.946 23.7274C47.4478 24.5782 45.9741 25.4652 44.4872 26.3315C43.0304 27.1806 41.5529 27.9953 40.0114 28.7083C39.7645 28.822 39.5157 28.9322 39.267 29.0407C39.2067 29.0683 39.1426 29.0907 39.0634 29.1217C39.022 28.9736 38.9805 28.8375 38.9447 28.6997C38.3831 26.5744 37.7311 24.4715 36.9641 22.4012C36.2404 20.4481 35.4225 18.5312 34.3691 16.7056C33.7849 15.6929 33.1347 14.7198 32.3168 13.8483C32.2 13.7225 32.0775 13.6003 31.9493 13.4676C33.8282 12.8459 35.2303 11.7453 36.1255 10.1315C36.8529 8.81913 37.0602 7.42751 36.7832 5.98077C36.2216 3.05112 33.5606 0.774235 30.2438 0.514166C26.9025 0.252376 23.9796 2.04013 22.8244 4.69248C22.3664 5.74309 22.2194 6.83159 22.3664 7.95281C22.5134 9.08092 22.9525 10.1074 23.6762 11.0323C24.3961 11.9503 25.3195 12.6495 26.437 13.1559C26.3616 13.23 26.3013 13.2868 26.241 13.3454C25.4816 14.0756 24.8992 14.9178 24.3961 15.8083C23.7044 17.0345 23.1579 18.3177 22.6943 19.6283C21.8991 21.8708 21.3148 24.158 20.8437 26.4728C20.8173 26.6019 20.7891 26.7311 20.7589 26.881C20.6854 26.8551 20.6232 26.8362 20.5629 26.8121C18.9516 26.1938 17.2989 25.684 15.6066 25.2895C14.4231 25.014 13.2264 24.8211 12.0071 24.7539C11.9732 24.7522 11.9374 24.7453 11.8789 24.7384C13.8502 23.1091 14.6831 21.1198 14.1913 18.7396C13.8257 16.9674 12.7458 15.605 11.0629 14.6629C7.71976 12.7925 3.30994 13.9464 1.52716 17.1482C0.852497 18.359 0.645198 19.6421 0.888303 20.9786C1.13141 22.3168 1.79665 23.4605 2.86707 24.4043C3.93372 25.3447 5.21521 25.8924 6.69646 26.0904C6.66631 26.13 6.655 26.1507 6.63804 26.1662C5.88045 26.8241 5.40366 27.6353 5.10779 28.5413C4.84772 29.3387 4.73465 30.1551 4.71015 30.9852C4.68 32.0203 4.76857 33.0485 4.93253 34.0716C5.13606 35.3392 5.44889 36.5844 5.82392 37.8176C6.58339 40.3029 7.58408 42.709 8.72234 45.0668C10.0019 47.7157 11.4398 50.2888 13.07 52.7707C14.3684 54.7479 15.7215 56.6958 17.1274 58.611C18.8065 60.9 20.5554 63.1424 22.4569 65.2815C22.9431 65.8292 23.4312 66.3769 23.9494 66.9005C25.3704 68.3421 26.829 69.7509 28.4912 70.9669C29.4749 71.6851 30.5058 72.3361 31.6497 72.827C32.3469 73.1249 33.0687 73.3505 33.832 73.4556C33.9488 73.4711 34.0656 73.4917 34.1825 73.509H35.0871C35.2397 73.4831 35.3943 73.459 35.5469 73.4315C36.3346 73.2937 37.03 72.9768 37.65 72.5169C38.3586 71.9933 38.9014 71.344 39.3612 70.6327C39.936 69.744 40.3581 68.795 40.7049 67.815C41.1892 66.4406 41.5152 65.0335 41.7621 63.6092C42.0599 61.8782 42.2314 60.137 42.3331 58.3888C42.4292 56.7148 42.4537 55.0407 42.4292 53.3649C42.4179 52.5399 42.384 51.7132 42.352 50.8882C42.3463 50.747 42.3878 50.6608 42.5159 50.5747C44.2799 49.3932 45.9515 48.1084 47.5345 46.7288C49.5792 44.948 51.4656 43.0362 53.1862 40.9901C54.8578 39.0026 56.3579 36.9151 57.6431 34.7002C58.5628 33.1157 59.3618 31.4847 59.963 29.7762C60.3286 28.7359 60.6169 27.6801 60.7639 26.5951C60.877 25.7546 60.9053 24.9141 60.747 24.0736C60.6396 23.5035 60.4492 22.9593 60.1044 22.4684C59.7369 21.9466 59.2393 21.5659 58.6118 21.3265C58.5609 21.3076 58.5119 21.2852 58.4422 21.2542C58.5213 21.2111 58.5798 21.1784 58.6382 21.1457C60.3135 20.2466 61.4235 18.9463 61.955 17.236C61.9795 17.1551 62.004 17.0741 62.0304 16.9932V14.0997C62.004 14.036 61.9795 13.9671 61.9587 13.8982ZM24.7673 28.3156C24.8182 26.8414 24.8992 25.3705 25.05 23.9014C25.1499 22.93 25.2743 21.9621 25.4476 20.9993C25.6512 19.8781 25.9037 18.7672 26.3447 17.6993C26.5444 17.2154 26.7819 16.7469 27.1305 16.3336C27.3473 16.0752 27.596 15.8444 27.9334 15.7256C28.5194 15.5206 29.0848 15.6033 29.6144 15.884C30.159 16.1734 30.6 16.573 30.9863 17.0242C31.5309 17.6597 31.9587 18.3607 32.3319 19.0892C33.1102 20.6014 33.668 22.1791 34.0732 23.8066C34.3596 24.9537 34.599 26.1076 34.7799 27.2719C34.9307 28.2485 35.0569 29.2285 35.1926 30.2067C35.1983 30.2515 35.1926 30.2963 35.1926 30.3531C35.1304 30.3669 35.072 30.3807 35.0117 30.3927C33.5945 30.6683 32.1811 30.6132 30.7696 30.3445C29.2902 30.0638 27.8674 29.6125 26.4653 29.1096C25.9508 28.9253 25.4439 28.729 24.9332 28.5361C24.7636 28.4758 24.7617 28.4741 24.7673 28.3156ZM34.239 55.6211C33.9639 56.8164 33.6492 58.0048 33.2402 59.169C33.1912 59.3103 33.1253 59.4481 33.0442 59.5755C32.7465 60.0371 32.4091 60.4711 31.97 60.8328C31.6384 61.1049 31.2652 61.3116 30.8224 61.3943C30.3248 61.4873 29.848 61.4132 29.3844 61.2444C28.8492 61.0498 28.3743 60.7605 27.9239 60.4367C27.1777 59.8976 26.5199 59.2741 25.8924 58.6231C24.6524 57.3382 23.548 55.9569 22.4851 54.5498C20.9002 52.4538 19.4209 50.294 17.9736 48.1153C16.7712 46.3051 15.6047 44.4761 14.5003 42.616C13.3508 40.6784 12.2615 38.7149 11.3305 36.6792C10.7991 35.5201 10.3223 34.342 9.97368 33.1243C9.74753 32.3355 9.54965 31.5364 9.54965 30.7183C9.54965 29.8743 9.83045 29.0993 10.4392 28.4483C10.9763 27.8747 11.6961 27.6336 12.5008 27.5682C13.2415 27.5079 13.967 27.6078 14.6831 27.7662C15.8553 28.0229 16.9672 28.4328 18.0471 28.9098C18.7311 29.2112 19.3964 29.5454 20.071 29.8657C20.1257 29.8916 20.1785 29.9226 20.2444 29.9587C20.203 30.2946 20.1615 30.6132 20.1219 30.9318C19.9542 32.2442 19.8581 33.5601 19.8619 34.8811C19.8637 35.6096 19.8581 36.3381 19.8769 37.0667C19.8958 37.7952 19.9259 38.5238 19.9768 39.2489C20.0579 40.4166 20.1464 41.5843 20.2576 42.7503C20.4235 44.4967 20.7363 46.2225 21.2621 47.9103C21.7332 49.4174 22.357 50.8658 23.2672 52.2023C23.9287 53.1737 24.7202 54.0435 25.719 54.7462C27.0401 55.6728 28.5326 56.1447 30.1967 56.1464C31.2426 56.1481 32.2565 55.9638 33.2421 55.6555C33.5512 55.5591 33.8527 55.4437 34.1561 55.3369C34.1957 55.3231 34.2371 55.3111 34.3088 55.2887C34.2805 55.4127 34.2616 55.5178 34.239 55.6211ZM35.5412 46.1777C35.2774 46.2552 35.0173 46.3379 34.7554 46.4102C34.1165 46.5842 33.472 46.7323 32.8105 46.8046C31.595 46.9389 30.4285 46.8149 29.3599 46.2242C28.6872 45.8522 28.1557 45.3458 27.7091 44.7602C27.1645 44.0438 26.7762 43.2549 26.4578 42.4368C26.0149 41.2984 25.719 40.1255 25.4853 38.9388C25.2517 37.747 25.0802 36.5465 24.9407 35.3427C24.8427 34.4867 24.7862 33.6272 24.7636 32.7678C24.7617 32.7334 24.7636 32.7006 24.7636 32.6266C24.8578 32.68 24.9143 32.7127 24.9709 32.7454C25.9075 33.2931 26.8554 33.8219 27.8523 34.2748C28.8342 34.7192 29.848 35.0843 30.9204 35.3048C32.3959 35.6062 33.8697 35.6286 35.3377 35.2634C35.4206 35.2428 35.5054 35.2255 35.611 35.2014C35.8013 38.8699 35.7862 42.5143 35.5412 46.1777ZM56.2731 25.5996C56.2316 26.0904 56.111 26.5623 55.9452 27.0274C55.6022 27.9901 55.1216 28.8995 54.5902 29.7865C53.4538 31.6776 52.1045 33.4378 50.6364 35.1256C49.3022 36.6585 47.8718 38.1121 46.3397 39.4814C44.9376 40.7352 43.4601 41.9081 41.879 42.9708C41.83 43.0035 41.7772 43.0345 41.6943 43.0861C41.2929 39.8327 40.7614 36.6309 40.083 33.4447C40.2187 33.3758 40.3374 33.3155 40.458 33.2552C42.1729 32.3889 43.8313 31.4365 45.4671 30.4513C47.1651 29.4283 48.8555 28.3949 50.5554 27.3753C51.4788 26.8207 52.4173 26.2868 53.3973 25.82C53.9042 25.5789 54.4187 25.3516 54.9709 25.2103C55.2008 25.1518 55.4363 25.1053 55.6757 25.1277C55.7925 25.138 55.9131 25.1638 56.0187 25.2086C56.1977 25.2775 56.29 25.3981 56.2731 25.5996Z" fill="#3D3D3D"/>
</g>
<defs>
<filter id="filter0_i_352_4722" x="0.790222" y="0.48877" width="63.3315" height="75.1117" filterUnits="userSpaceOnUse" color-interpolation-filters="sRGB">
<feFlood flood-opacity="0" result="BackgroundImageFix"/>
<feBlend mode="normal" in="SourceGraphic" in2="BackgroundImageFix" result="shape"/>
<feColorMatrix in="SourceAlpha" type="matrix" values="0 0 0 0 0 0 0 0 0 0 0 0 0 0 0 0 0 0 127 0" result="hardAlpha"/>
<feOffset dx="2.0914" dy="2.0914"/>
<feGaussianBlur stdDeviation="2.0914"/>
<feComposite in2="hardAlpha" operator="arithmetic" k2="-1" k3="1"/>
<feColorMatrix type="matrix" values="0 0 0 0 0.679167 0 0 0 0 0.679167 0 0 0 0 0.679167 0 0 0 0.25 0"/>
<feBlend mode="normal" in2="shape" result="effect1_innerShadow_352_4722"/>
</filter>
</defs>
</svg>
