<svg width="812" height="759" viewBox="0 0 812 759" fill="none" xmlns="http://www.w3.org/2000/svg">
<path d="M832.5 1.4966C832.5 7.0966 836.5 66.1652 836.5 81.9986C832.5 78.8314 814.9 67.6805 784.5 70.4805C746.5 73.9805 718 98.4986 701 131.999C676.839 179.609 697.352 293.535 711 334.499C725.5 378.018 753 532.998 741.5 580.498C730 627.998 722 637.498 716 646.479C712.023 652.432 698.043 667.078 694.5 670.498C679.5 684.979 663.5 686.998 661 687.498C658.5 687.998 651.5 685.979 642 684.979C632.5 683.979 627.5 681.479 619 677.479C610.5 673.479 588 652.979 584.5 648.979C581 644.979 541.5 598.979 531 581.479C520.5 563.979 489.5 529.479 475.5 516.979C461.5 504.479 439.5 487.999 419.5 487.999C399.5 487.999 374.384 508.407 365 520.498C358 529.518 336.5 570.979 313.5 608.979C290.5 646.979 210.5 710.979 163 730.979C125 746.979 38.5 755.979 0 758.479L33 669.979C84.5 667.312 191.5 655.898 247.5 621.498C317.5 578.498 317.5 502.499 398 480.999C478.5 459.499 549.5 606.479 578.5 638.479C607.5 670.479 617.5 674.979 627.5 679.479C637.5 683.979 676 692.979 706 646.479C736 599.979 726 542.979 719.5 466.979C713 390.979 656 290.481 661.5 155.481C667 20.4805 819 -3.5034 832.5 1.4966Z" fill="#FFC439"/>
</svg>
