<svg width="766" height="638" viewBox="0 0 766 638" fill="none" xmlns="http://www.w3.org/2000/svg">
<path d="M-6.10352e-05 56.911C11.1229 51.562 22.781 48.058 35.2 49.058C64.733 51.435 88.6339 64.344 106.263 88.314C122.187 109.966 129.599 134.748 133.03 161.033C137.825 197.767 132.017 233.617 124.01 269.233C115.838 305.586 106.441 341.681 99.062 378.187C94.83 399.122 92.8399 420.594 91.1349 441.927C89.4475 461.961 88.809 482.069 89.2219 502.17C89.8979 529.221 91.017 556.422 100.592 582.27C109.292 605.747 123.957 623.852 147.799 633.525C173.25 643.856 197.52 634.4 213.75 615.4C228.003 598.715 236.634 578.82 245.785 559.229C260.3 528.157 274.596 496.866 297.5 470.792C318.9 446.432 345.057 429.549 377.969 425.639C401.638 422.826 422.705 429.839 441.16 444.961C457.445 458.304 469.431 475.295 482.124 491.761C494.189 507.415 505.983 523.444 519.572 537.717C534.147 553.026 551.65 565.117 570.335 575.33C601.624 592.43 635.16 602.203 670.48 605.889C701.222 609.097 731.636 606.589 761.68 599.289C766.043 598.229 766.096 596.289 764.453 592.894C757.133 577.771 749.945 562.584 742.647 547.451C736.721 535.162 730.745 522.898 724.718 510.658C723.938 509.064 722.973 507.558 721.786 505.471C718.586 507.921 715.857 510.012 713.126 512.099C691.377 528.719 666.554 536.385 639.444 538.299C609.198 540.433 580.881 534.107 554.007 520.636C539.168 513.197 526.14 503.185 514.05 491.842C495.863 474.78 478.118 457.161 458.984 441.215C439.226 424.749 415.859 415.964 389.672 417.537C365.367 418.996 343.939 428.656 324.272 442.569C300.18 459.612 282.992 482.637 269.241 508.131C255.43 533.731 243.407 560.298 229.783 586.008C224.241 596.613 217.467 606.527 209.602 615.545C189.695 638.009 159.326 640.206 134.773 622.154C115.026 607.635 105.173 587.154 101.337 563.919C98.7717 547.351 97.3779 530.623 97.166 513.859C96.041 463.346 102.656 413.659 115.778 364.914C121.785 342.6 129.018 320.614 135.878 298.529C144.466 270.871 152.988 243.186 157.494 214.507C162.988 179.537 163.594 144.588 154.237 110.115C147.672 85.926 137.037 63.759 119.772 45.044C97.363 20.755 69.861 6.271 37.324 1.034C35.865 0.8 34.4399 0.349 32.9999 0H-6.10352e-05V56.911Z" fill="black"/>
<path d="M-6.10352e-05 56.911C11.1229 51.562 22.781 48.058 35.2 49.058C64.733 51.435 88.6339 64.344 106.263 88.314C122.187 109.966 129.599 134.748 133.03 161.033C137.825 197.767 132.017 233.617 124.01 269.233C115.838 305.586 106.441 341.681 99.062 378.187C94.83 399.122 92.8399 420.594 91.1349 441.927C89.4475 461.961 88.809 482.069 89.2219 502.17C89.8979 529.221 91.017 556.422 100.592 582.27C109.292 605.747 123.957 623.852 147.799 633.525C173.25 643.856 197.52 634.4 213.75 615.4C228.003 598.715 236.634 578.82 245.785 559.229C260.3 528.157 274.596 496.866 297.5 470.792C318.9 446.432 345.057 429.549 377.969 425.639C401.638 422.826 422.705 429.839 441.16 444.961C457.445 458.304 469.431 475.295 482.124 491.761C494.189 507.415 505.983 523.444 519.572 537.717C534.147 553.026 551.65 565.117 570.335 575.33C601.624 592.43 635.16 602.203 670.48 605.889C701.222 609.097 731.636 606.589 761.68 599.289C766.043 598.229 766.096 596.289 764.453 592.894C757.133 577.771 749.945 562.584 742.647 547.451C736.721 535.162 730.745 522.898 724.718 510.658C723.938 509.064 722.973 507.558 721.786 505.471C718.586 507.921 715.857 510.012 713.126 512.099C691.377 528.719 666.554 536.385 639.444 538.299C609.198 540.433 580.881 534.107 554.007 520.636C539.168 513.197 526.14 503.185 514.05 491.842C495.863 474.78 478.118 457.161 458.984 441.215C439.226 424.749 415.859 415.964 389.672 417.537C365.367 418.996 343.939 428.656 324.272 442.569C300.18 459.612 282.992 482.637 269.241 508.131C255.43 533.731 243.407 560.298 229.783 586.008C224.241 596.613 217.467 606.527 209.602 615.545C189.695 638.009 159.326 640.206 134.773 622.154C115.026 607.635 105.173 587.154 101.337 563.919C98.7717 547.351 97.3779 530.623 97.166 513.859C96.041 463.346 102.656 413.659 115.778 364.914C121.785 342.6 129.018 320.614 135.878 298.529C144.466 270.871 152.988 243.186 157.494 214.507C162.988 179.537 163.594 144.588 154.237 110.115C147.672 85.926 137.037 63.759 119.772 45.044C97.363 20.755 69.861 6.271 37.324 1.034C35.865 0.8 34.4399 0.349 32.9999 0H-6.10352e-05V56.911Z" fill="url(#paint0_linear_451_330)"/>
<defs>
<linearGradient id="paint0_linear_451_330" x1="765" y1="-4.9515e-06" x2="1.14964e-05" y2="696" gradientUnits="userSpaceOnUse">
<stop stop-color="#DA22FF"/>
<stop offset="1" stop-color="#9733EE"/>
</linearGradient>
</defs>
</svg>
