<svg width="1043" height="811" viewBox="0 0 1043 811" fill="none" xmlns="http://www.w3.org/2000/svg">
<path d="M1007.54 0C993.427 3.06573 978.959 5.01479 965.271 9.39577C914.686 25.5813 875.452 56.0931 849.824 103.245C833.906 132.54 825.593 163.842 822.54 196.958C818.05 245.62 826.565 292.531 840.479 338.705C851.836 376.391 864.481 413.689 876.025 451.323C887.394 488.388 894.562 526.336 899.01 564.866C902.69 596.994 903.91 629.356 902.662 661.67C901.451 693.861 898.089 726.061 881.182 754.591C862.663 785.839 836.284 806.064 798.451 806.352C775.795 806.525 757.922 795.271 743.069 778.762C728.823 762.926 719.197 744.169 709.612 725.474C693.718 694.472 679.016 662.844 658.886 634.19C637.9 604.319 612.878 578.758 579.752 562.511C524.086 535.209 470.156 538.12 419.665 575.008C402.21 587.761 386.469 602.891 370.222 617.251C347.374 637.434 326.068 659.366 299.512 675.154C271.448 691.934 240.237 702.775 207.812 707.008C173.962 711.485 140.281 709.848 108.145 697.43C94.3669 692.107 81.7126 683.856 68.6189 676.803C65.888 675.094 63.2607 673.225 60.7509 671.206C56.9659 677.953 53.3197 684.097 50.0028 690.416C33.9367 721.069 17.9142 751.746 1.93522 782.447C-1.41713 788.856 -0.766769 790.424 6.68893 791.856C40.5048 798.277 75.0323 800.11 109.338 797.305C148.209 794.252 186.415 785.475 222.719 771.257C256.564 758.16 288.138 739.826 316.287 716.927C342.943 695.208 364.519 668.751 385.056 641.348C401.345 619.615 418.574 598.587 440.009 581.583C476.311 552.782 516.813 547.089 560.385 561.073C601.498 574.267 632.786 600.626 656.532 635.938C667.864 652.788 677.682 670.707 687.456 688.539C701.035 713.315 713.313 738.818 727.311 763.346C738.51 782.972 753.905 799.04 776.053 806.548C805.396 816.495 831.876 809.047 856.053 791.434C884.329 770.835 899.248 741.805 905.373 708.28C909.015 688.347 910.747 668.008 912.324 647.774C913.603 631.35 913.843 614.805 913.723 598.321C913.431 548.322 907.544 498.513 896.172 449.823C885.794 405.555 873.995 361.593 864.795 317.085C859.84 293.417 857.303 269.307 857.223 245.126C857.254 202.962 866.027 162.416 889.758 126.409C911.923 92.773 942.78 72.0038 982.491 64.6836C1002.62 60.7876 1023.48 63.3837 1042.04 72.0977C1042.45 70.2704 1042.73 68.4172 1042.88 66.5511C1042.93 47.3162 1042.8 28.0799 1043 8.84764C1043.04 4.37689 1041.64 1.47302 1037.43 0H1007.54Z" fill="url(#paint0_linear_451_326)"/>
<defs>
<linearGradient id="paint0_linear_451_326" x1="296" y1="811" x2="884.276" y2="-102.244" gradientUnits="userSpaceOnUse">
<stop stop-color="#FFB347"/>
<stop offset="0.633537" stop-color="#FFB347"/>
<stop offset="1" stop-color="#FFCC33"/>
</linearGradient>
</defs>
</svg>
