<svg width="162" height="138" viewBox="0 0 162 138" fill="none" xmlns="http://www.w3.org/2000/svg">
<path d="M41.7117 36.9265C39.3219 36.9265 37.6239 36.2251 36.6176 34.8225C35.6323 33.4198 35.1397 31.4345 35.1397 28.8666V17.9906C35.1397 15.4443 35.6428 13.5022 36.6491 12.1642C37.6553 10.8047 39.3428 10.125 41.7117 10.125C44.0386 10.125 45.7052 10.8047 46.7114 12.1642C47.7177 13.5237 48.2208 15.4659 48.2208 17.9906V28.899C48.2208 31.4669 47.7281 33.4522 46.7429 34.8549C45.7576 36.2359 44.0805 36.9265 41.7117 36.9265ZM41.7117 34.952C43.263 34.952 44.3321 34.488 44.9191 33.5601C45.506 32.6106 45.7995 31.2295 45.7995 29.4169V17.5375C45.7995 15.7248 45.506 14.3653 44.9191 13.459C44.3531 12.5527 43.2839 12.0995 41.7117 12.0995C40.1185 12.0995 39.0284 12.5527 38.4414 13.459C37.8545 14.3437 37.561 15.7032 37.561 17.5375V29.4169C37.561 31.2511 37.8545 32.6322 38.4414 33.5601C39.0284 34.488 40.1185 34.952 41.7117 34.952Z" fill="#FFC935"/>
<path d="M52.1951 10.3839H61.3456V12.229H54.5849V22.1015H60.2136V23.9142H54.5849V36.6028H52.1951V10.3839Z" fill="#FFC935"/>
<path d="M81.4049 53.6029C77.1427 53.6029 74.1152 52.3807 72.3223 49.9361C70.5633 47.4567 69.6838 43.9644 69.6838 39.4595V24.3208C69.6838 19.6762 70.5633 16.1491 72.3223 13.7394C74.0813 11.3298 77.1089 10.125 81.4049 10.125C85.4303 10.125 88.2887 11.1727 89.9801 13.268C91.6715 15.3633 92.5171 18.3841 92.5171 22.3303V25.8923H85.3119V22.2255C85.3119 20.7238 85.2443 19.5539 85.109 18.7158C84.9737 17.8428 84.6185 17.1443 84.0434 16.6205C83.5022 16.0617 82.6396 15.7824 81.4557 15.7824C80.2379 15.7824 79.3245 16.0792 78.7157 16.6729C78.1068 17.2316 77.7008 17.9999 77.4979 18.9777C77.3287 19.9206 77.2442 21.1604 77.2442 22.6969V41.0834C77.2442 43.493 77.5486 45.2391 78.1575 46.3217C78.7664 47.3693 79.8658 47.8932 81.4557 47.8932C82.6058 47.8932 83.4515 47.6138 83.9927 47.0551C84.5678 46.4963 84.9229 45.7629 85.0582 44.855C85.2274 43.9121 85.3119 42.6723 85.3119 41.1358V37.3118H92.5171V40.7167C92.5171 44.8026 91.6884 47.9805 90.0308 50.2504C88.3733 52.4854 85.498 53.6029 81.4049 53.6029Z" fill="white"/>
<path d="M112.511 53.6029C108.249 53.6029 105.204 52.433 103.378 50.0933C101.551 47.7186 100.638 44.2613 100.638 39.7214V23.797C100.638 19.292 101.551 15.8871 103.378 13.5823C105.204 11.2774 108.249 10.125 112.511 10.125C116.739 10.125 119.767 11.2774 121.594 13.5823C123.42 15.8871 124.334 19.292 124.334 23.797V39.7214C124.334 44.2264 123.403 47.6662 121.543 50.0409C119.716 52.4156 116.706 53.6029 112.511 53.6029ZM112.511 47.8932C114.168 47.8932 115.285 47.3519 115.86 46.2693C116.435 45.1867 116.722 43.6152 116.722 41.5548V22.016C116.722 19.9556 116.435 18.4015 115.86 17.3539C115.319 16.3062 114.202 15.7824 112.511 15.7824C110.82 15.7824 109.686 16.3237 109.111 17.4062C108.536 18.4539 108.249 19.9905 108.249 22.016V41.5548C108.249 43.6152 108.536 45.1867 109.111 46.2693C109.686 47.3519 110.82 47.8932 112.511 47.8932Z" fill="white"/>
<path d="M133.44 10.5964H138.667L148.663 34.7974V10.5964H154.853V53.0267H149.88L139.834 27.6733V53.0267H133.44V10.5964Z" fill="white"/>
<path d="M41.6876 76.5654H35.1397V70.875H55.5955V76.5654H49.1999V113.162H41.6876V76.5654Z" fill="white"/>
<path d="M69.4888 70.875H86.7468V76.3044H76.9503V88.4684H84.6657V93.8456H76.9503V107.889H86.8483V113.162H69.4888V70.875Z" fill="white"/>
<path d="M107.037 90.7132L99.017 70.875H106.022L111.351 84.0309L116.021 70.875H122.468L114.6 92.175L123.077 113.162H116.123L110.285 98.9096L105.21 113.162H98.7632L107.037 90.7132Z" fill="white"/>
<path d="M140.945 76.5654H134.397V70.875H154.853V76.5654H148.457V113.162H140.945V76.5654Z" fill="white"/>
<path d="M51.2555 128.518C51.2494 128.178 51.1305 127.908 50.8987 127.707C50.667 127.499 50.3833 127.395 50.0479 127.395C49.7307 127.395 49.4624 127.496 49.2428 127.697C49.0293 127.892 48.8982 128.166 48.8494 128.518H51.2555Z" fill="url(#paint0_linear_1_46)"/>
<path d="M61.0032 128.188C61.1252 128.414 61.1862 128.688 61.1862 129.009C61.1862 129.329 61.1252 129.606 61.0032 129.839C60.8812 130.065 60.7165 130.241 60.5092 130.367C60.3018 130.487 60.0792 130.546 59.8413 130.546C59.6095 130.546 59.39 130.484 59.1826 130.358C58.9813 130.232 58.8167 130.053 58.6886 129.82C58.5666 129.581 58.5056 129.304 58.5056 128.99C58.5056 128.675 58.5666 128.405 58.6886 128.178C58.8167 127.946 58.9813 127.769 59.1826 127.65C59.3839 127.53 59.6034 127.471 59.8413 127.471C60.0792 127.471 60.3018 127.534 60.5092 127.659C60.7165 127.779 60.8812 127.955 61.0032 128.188Z" fill="url(#paint1_linear_1_46)"/>
<path d="M68.027 128.518C68.0209 128.178 67.9019 127.908 67.6702 127.707C67.4384 127.499 67.1548 127.395 66.8194 127.395C66.5022 127.395 66.2338 127.496 66.0143 127.697C65.8008 127.892 65.6697 128.166 65.6209 128.518H68.027Z" fill="url(#paint2_linear_1_46)"/>
<path d="M84.0412 128.188C84.1631 128.414 84.2241 128.688 84.2241 129.009C84.2241 129.329 84.1631 129.606 84.0412 129.839C83.9192 130.065 83.7545 130.241 83.5471 130.367C83.3398 130.487 83.1171 130.546 82.8793 130.546C82.6475 130.546 82.4279 130.484 82.2206 130.358C82.0193 130.232 81.8546 130.053 81.7265 129.82C81.6046 129.581 81.5436 129.304 81.5436 128.99C81.5436 128.675 81.6046 128.405 81.7265 128.178C81.8546 127.946 82.0193 127.769 82.2206 127.65C82.4218 127.53 82.6414 127.471 82.8793 127.471C83.1171 127.471 83.3398 127.534 83.5471 127.659C83.7545 127.779 83.9192 127.955 84.0412 128.188Z" fill="url(#paint3_linear_1_46)"/>
<path d="M108.361 129.009C108.361 128.688 108.3 128.414 108.178 128.188C108.056 127.955 107.891 127.779 107.684 127.659C107.477 127.534 107.254 127.471 107.016 127.471C106.778 127.471 106.559 127.53 106.357 127.65C106.156 127.769 105.992 127.946 105.863 128.178C105.741 128.405 105.68 128.675 105.68 128.99C105.68 129.304 105.741 129.581 105.863 129.82C105.992 130.053 106.156 130.232 106.357 130.358C106.565 130.484 106.784 130.546 107.016 130.546C107.254 130.546 107.477 130.487 107.684 130.367C107.891 130.241 108.056 130.065 108.178 129.839C108.3 129.606 108.361 129.329 108.361 129.009Z" fill="url(#paint4_linear_1_46)"/>
<path d="M127.969 128.188C128.091 128.414 128.152 128.688 128.152 129.009C128.152 129.329 128.091 129.606 127.969 129.839C127.847 130.065 127.683 130.241 127.475 130.367C127.268 130.487 127.045 130.546 126.807 130.546C126.576 130.546 126.356 130.484 126.149 130.358C125.947 130.232 125.783 130.053 125.655 129.82C125.533 129.581 125.472 129.304 125.472 128.99C125.472 128.675 125.533 128.405 125.655 128.178C125.783 127.946 125.947 127.769 126.149 127.65C126.35 127.53 126.57 127.471 126.807 127.471C127.045 127.471 127.268 127.534 127.475 127.659C127.683 127.779 127.847 127.955 127.969 128.188Z" fill="url(#paint5_linear_1_46)"/>
<path d="M145.284 130.556C145.516 130.556 145.732 130.499 145.933 130.386C146.141 130.267 146.305 130.09 146.427 129.858C146.549 129.625 146.61 129.342 146.61 129.009C146.61 128.512 146.482 128.131 146.226 127.867C145.976 127.597 145.668 127.461 145.302 127.461C144.936 127.461 144.628 127.597 144.378 127.867C144.134 128.131 144.012 128.512 144.012 129.009C144.012 129.505 144.131 129.889 144.369 130.16C144.613 130.424 144.918 130.556 145.284 130.556Z" fill="url(#paint6_linear_1_46)"/>
<path fill-rule="evenodd" clip-rule="evenodd" d="M28.5882 137.581V0H162V137.581H28.5882ZM30.367 1.83441H160.221V119.944H30.367V1.83441ZM77.7531 125.772C77.5274 125.772 77.3383 125.7 77.1858 125.556C77.0395 125.405 76.9663 125.219 76.9663 124.999C76.9663 124.779 77.0395 124.596 77.1858 124.452C77.3383 124.301 77.5274 124.225 77.7531 124.225C77.9787 124.225 78.1648 124.301 78.3111 124.452C78.4636 124.596 78.5399 124.779 78.5399 124.999C78.5399 125.219 78.4636 125.405 78.3111 125.556C78.1648 125.7 77.9787 125.772 77.7531 125.772ZM78.3843 131.622H77.1035V126.395H78.3843V131.622ZM44.7862 126.584C44.4873 126.408 44.1458 126.32 43.7615 126.32C43.4261 126.32 43.1211 126.386 42.8466 126.518C42.5722 126.644 42.3526 126.82 42.1879 127.046V124.64H40.9071V131.622H42.1879V128.735C42.1879 128.32 42.2886 128.002 42.4898 127.782C42.6972 127.556 42.9778 127.442 43.3315 127.442C43.6792 127.442 43.9536 127.556 44.1549 127.782C44.3562 128.002 44.4568 128.32 44.4568 128.735V131.622H45.7376V128.556C45.7376 128.084 45.6522 127.681 45.4815 127.348C45.3168 127.008 45.085 126.754 44.7862 126.584ZM37.9366 130.009V127.48H39.071V126.395H37.9366V125.103H36.6466V126.395H36.0428V127.48H36.6466V129.999C36.6466 131.081 37.1864 131.622 38.2659 131.622H39.071V130.509H38.4763C38.2812 130.509 38.1409 130.471 38.0555 130.395C37.9762 130.314 37.9366 130.185 37.9366 130.009ZM52.5821 128.895C52.5821 129.084 52.5699 129.254 52.5455 129.405H48.8403C48.8708 129.782 48.9988 130.078 49.2245 130.292C49.4502 130.506 49.7277 130.612 50.057 130.612C50.5328 130.612 50.8713 130.402 51.0726 129.98H52.454C52.3076 130.484 52.0271 130.899 51.6123 131.226C51.1976 131.546 50.6883 131.707 50.0845 131.707C49.5966 131.707 49.1574 131.597 48.7671 131.377C48.3828 131.15 48.0809 130.833 47.8614 130.424C47.6479 130.015 47.5411 129.543 47.5411 129.009C47.5411 128.468 47.6479 127.993 47.8614 127.584C48.0748 127.175 48.3737 126.861 48.7579 126.64C49.1422 126.42 49.5844 126.31 50.0845 126.31C50.5663 126.31 50.9963 126.417 51.3745 126.631C51.7587 126.845 52.0545 127.15 52.2619 127.546C52.4754 127.936 52.5821 128.386 52.5821 128.895ZM57.4992 127.584C57.298 127.993 57.1973 128.461 57.1973 128.99C57.1973 129.524 57.298 129.999 57.4992 130.414C57.7066 130.823 57.9872 131.141 58.3409 131.367C58.6947 131.594 59.085 131.707 59.512 131.707C59.8901 131.707 60.2225 131.628 60.5092 131.471C60.7958 131.314 61.0184 131.106 61.177 130.848V131.622H62.4761V124.64H61.177V127.122C61.0001 126.876 60.7623 126.681 60.4634 126.537C60.1646 126.386 59.8505 126.31 59.5211 126.31C59.0881 126.31 58.6947 126.42 58.3409 126.64C57.9872 126.861 57.7066 127.175 57.4992 127.584ZM69.3535 128.895C69.3535 129.084 69.3413 129.254 69.317 129.405H65.6117C65.6422 129.782 65.7703 130.078 65.996 130.292C66.2216 130.506 66.4991 130.612 66.8285 130.612C67.3042 130.612 67.6427 130.402 67.844 129.98H69.2255C69.0791 130.484 68.7985 130.899 68.3838 131.226C67.969 131.546 67.4598 131.707 66.8559 131.707C66.368 131.707 65.9289 131.597 65.5385 131.377C65.1543 131.15 64.8524 130.833 64.6328 130.424C64.4193 130.015 64.3126 129.543 64.3126 129.009C64.3126 128.468 64.4193 127.993 64.6328 127.584C64.8463 127.175 65.1451 126.861 65.5294 126.64C65.9136 126.42 66.3558 126.31 66.8559 126.31C67.3378 126.31 67.7678 126.417 68.1459 126.631C68.5302 126.845 68.826 127.15 69.0333 127.546C69.2468 127.936 69.3535 128.386 69.3535 128.895ZM72.0267 131.48C72.356 131.631 72.7281 131.707 73.1428 131.707C73.5454 131.707 73.8961 131.641 74.1949 131.509C74.4999 131.37 74.7317 131.182 74.8902 130.943C75.0549 130.704 75.1372 130.433 75.1372 130.131C75.1312 129.785 75.0397 129.509 74.8628 129.301C74.692 129.087 74.4877 128.93 74.2498 128.829C74.012 128.729 73.7101 128.631 73.3441 128.537C72.9843 128.443 72.7189 128.351 72.5482 128.263C72.3774 128.169 72.292 128.034 72.292 127.858C72.292 127.7 72.353 127.578 72.475 127.49C72.6031 127.402 72.783 127.358 73.0147 127.358C73.2648 127.358 73.463 127.42 73.6094 127.546C73.7619 127.666 73.8473 127.829 73.8656 128.037H75.0915C75.0549 127.508 74.8567 127.09 74.4968 126.782C74.137 126.468 73.6552 126.31 73.0513 126.31C72.6427 126.31 72.2859 126.379 71.9809 126.518C71.6821 126.656 71.4503 126.845 71.2856 127.084C71.1271 127.323 71.0478 127.587 71.0478 127.876C71.0478 128.229 71.1332 128.509 71.3039 128.716C71.4808 128.924 71.6882 129.078 71.926 129.178C72.17 129.279 72.4811 129.377 72.8592 129.471C73.2252 129.572 73.4905 129.666 73.6552 129.754C73.8259 129.836 73.9113 129.961 73.9113 130.131C73.9113 130.289 73.8412 130.417 73.7009 130.518C73.5667 130.619 73.3776 130.669 73.1337 130.669C72.8836 130.669 72.6732 130.603 72.5024 130.471C72.3377 130.339 72.2432 130.172 72.2188 129.971H70.9288C70.9471 130.292 71.0508 130.584 71.2399 130.848C71.4351 131.113 71.6973 131.323 72.0267 131.48ZM83.5471 126.546C83.2605 126.389 82.9281 126.31 82.5499 126.31C82.1169 126.31 81.7235 126.42 81.3697 126.64C81.0221 126.861 80.7446 127.175 80.5372 127.584C80.3359 127.993 80.2353 128.461 80.2353 128.99C80.2353 129.524 80.3359 129.999 80.5372 130.414C80.7446 130.823 81.0251 131.141 81.3789 131.367C81.7326 131.594 82.123 131.707 82.5499 131.707C82.922 131.707 83.2513 131.625 83.538 131.462C83.8307 131.298 84.0595 131.094 84.2241 130.848V131.66C84.2241 132.125 84.1083 132.471 83.8765 132.698C83.6447 132.93 83.3428 133.047 82.9708 133.047C82.6536 133.047 82.3822 132.974 82.1565 132.83C81.937 132.691 81.7936 132.503 81.7265 132.264H80.4549C80.5159 132.861 80.7751 133.333 81.2325 133.679C81.696 134.025 82.2877 134.198 83.0074 134.198C83.5441 134.198 84.0015 134.084 84.3797 133.858C84.7578 133.638 85.0414 133.336 85.2305 132.952C85.4196 132.575 85.5141 132.144 85.5141 131.66V126.395H84.2241V127.141C84.0595 126.895 83.8338 126.697 83.5471 126.546ZM90.4886 126.32C91.0924 126.32 91.5803 126.518 91.9524 126.914C92.3244 127.304 92.5104 127.851 92.5104 128.556V131.622H91.2296V128.735C91.2296 128.32 91.129 128.002 90.9277 127.782C90.7264 127.556 90.452 127.442 90.1043 127.442C89.7506 127.442 89.47 127.556 89.2626 127.782C89.0614 128.002 88.9607 128.32 88.9607 128.735V131.622H87.6799V126.395H88.9607V127.046C89.1315 126.82 89.348 126.644 89.6103 126.518C89.8787 126.386 90.1714 126.32 90.4886 126.32ZM101.617 126.584C101.318 126.408 100.977 126.32 100.593 126.32C100.257 126.32 99.9521 126.386 99.6777 126.518C99.4032 126.644 99.1836 126.82 99.019 127.046V124.64H97.7381V131.622H99.019V128.735C99.019 128.32 99.1196 128.002 99.3209 127.782C99.5282 127.556 99.8088 127.442 100.163 127.442C100.51 127.442 100.785 127.556 100.986 127.782C101.187 128.002 101.288 128.32 101.288 128.735V131.622H102.569V128.556C102.569 128.084 102.483 127.681 102.313 127.348C102.148 127.008 101.916 126.754 101.617 126.584ZM104.372 128.99C104.372 128.461 104.473 127.993 104.674 127.584C104.881 127.175 105.159 126.861 105.507 126.64C105.86 126.42 106.254 126.31 106.687 126.31C107.065 126.31 107.394 126.389 107.675 126.546C107.962 126.703 108.19 126.902 108.361 127.141V126.395H109.651V131.622H108.361V130.858C108.196 131.103 107.968 131.307 107.675 131.471C107.388 131.628 107.056 131.707 106.678 131.707C106.251 131.707 105.86 131.594 105.507 131.367C105.159 131.141 104.881 130.823 104.674 130.414C104.473 129.999 104.372 129.524 104.372 128.99ZM111.808 127.593C111.594 127.996 111.487 128.468 111.487 129.009C111.487 129.549 111.594 130.024 111.808 130.433C112.021 130.836 112.317 131.15 112.695 131.377C113.073 131.597 113.506 131.707 113.994 131.707C114.616 131.707 115.135 131.54 115.549 131.207C115.964 130.874 116.242 130.424 116.382 129.858H115.001C114.842 130.336 114.503 130.575 113.985 130.575C113.619 130.575 113.329 130.44 113.116 130.169C112.902 129.892 112.796 129.505 112.796 129.009C112.796 128.505 112.902 128.119 113.116 127.848C113.329 127.571 113.619 127.433 113.985 127.433C114.241 127.433 114.455 127.499 114.625 127.631C114.802 127.757 114.927 127.933 115.001 128.159H116.382C116.242 127.575 115.964 127.122 115.549 126.801C115.141 126.474 114.622 126.31 113.994 126.31C113.506 126.31 113.073 126.423 112.695 126.65C112.317 126.87 112.021 127.185 111.808 127.593ZM119.516 131.622H118.235V124.64H119.516V128.612L121.218 126.395H122.883L120.65 129.018L122.901 131.622H121.236L119.516 129.395V131.622ZM124.465 127.584C124.264 127.993 124.163 128.461 124.163 128.99C124.163 129.524 124.264 129.999 124.465 130.414C124.673 130.823 124.95 131.141 125.298 131.367C125.652 131.594 126.042 131.707 126.469 131.707C126.847 131.707 127.179 131.628 127.466 131.471C127.759 131.307 127.988 131.103 128.152 130.858V131.622H129.442V126.395H128.152V127.141C127.981 126.902 127.753 126.703 127.466 126.546C127.186 126.389 126.856 126.31 126.478 126.31C126.045 126.31 125.652 126.42 125.298 126.64C124.95 126.861 124.673 127.175 124.465 127.584ZM133.099 127.48V130.009C133.099 130.185 133.139 130.314 133.218 130.395C133.304 130.471 133.444 130.509 133.639 130.509H134.234V131.622H133.429C132.349 131.622 131.809 131.081 131.809 129.999V127.48H131.206V126.395H131.809V125.103H133.099V126.395H134.234V127.48H133.099ZM139.949 126.584C139.65 126.408 139.308 126.32 138.924 126.32C138.589 126.32 138.284 126.386 138.009 126.518C137.735 126.644 137.515 126.82 137.351 127.046V124.64H136.07V131.622H137.351V128.735C137.351 128.32 137.451 128.002 137.653 127.782C137.86 127.556 138.14 127.442 138.494 127.442C138.842 127.442 139.116 127.556 139.318 127.782C139.519 128.002 139.62 128.32 139.62 128.735V131.622H140.9V128.556C140.9 128.084 140.815 127.681 140.644 127.348C140.48 127.008 140.248 126.754 139.949 126.584ZM145.284 131.707C144.796 131.707 144.357 131.597 143.966 131.377C143.576 131.15 143.268 130.833 143.042 130.424C142.823 130.015 142.713 129.543 142.713 129.009C142.713 128.474 142.826 128.002 143.052 127.593C143.283 127.185 143.597 126.87 143.994 126.65C144.39 126.423 144.832 126.31 145.32 126.31C145.808 126.31 146.251 126.423 146.647 126.65C147.043 126.87 147.354 127.185 147.58 127.593C147.812 128.002 147.928 128.474 147.928 129.009C147.928 129.543 147.809 130.015 147.571 130.424C147.339 130.833 147.022 131.15 146.62 131.377C146.223 131.597 145.778 131.707 145.284 131.707ZM154.055 126.914C153.683 126.518 153.195 126.32 152.591 126.32C152.274 126.32 151.981 126.386 151.713 126.518C151.45 126.644 151.234 126.82 151.063 127.046V126.395H149.782V131.622H151.063V128.735C151.063 128.32 151.164 128.002 151.365 127.782C151.572 127.556 151.853 127.442 152.207 127.442C152.554 127.442 152.829 127.556 153.03 127.782C153.231 128.002 153.332 128.32 153.332 128.735V131.622H154.613V128.556C154.613 127.851 154.427 127.304 154.055 126.914Z" fill="url(#paint7_linear_1_46)"/>
<path d="M21.4412 127.909C21.4412 130.393 20.8667 132.232 19.7177 133.425C18.5582 134.607 16.7715 135.198 14.3576 135.198L7.05257 135.198C4.61757 135.198 2.83086 134.602 1.69242 133.409C0.543437 132.216 -0.0205124 130.382 0.000569466 127.909L0.0005693 124.005C0.000569194 121.51 0.575059 119.671 1.72404 118.489C2.87302 117.307 4.65974 116.715 7.08419 116.715L14.3576 116.715C16.7715 116.715 18.5582 117.307 19.7177 118.489C20.8667 119.671 21.4412 121.51 21.4412 124.005L21.4412 127.909ZM18.7848 127.909L18.7848 124.005C18.7848 122.844 18.6531 121.933 18.3895 121.271C18.1155 120.609 17.6569 120.143 17.0139 119.872C16.3709 119.59 15.4855 119.449 14.3576 119.449L7.08419 119.449C5.96683 119.449 5.08665 119.59 4.44365 119.872C3.80064 120.143 3.3421 120.609 3.06803 121.271C2.79396 121.933 2.65693 122.844 2.65693 124.005L2.65693 127.909C2.64639 129.059 2.77288 129.965 3.03641 130.627C3.29994 131.288 3.7532 131.76 4.39621 132.042C5.03922 132.324 5.92467 132.465 7.05257 132.465L14.3576 132.465C15.4855 132.465 16.3709 132.329 17.0139 132.058C17.6569 131.776 18.1155 131.304 18.3895 130.643C18.6531 129.981 18.7848 129.07 18.7848 127.909Z" fill="white"/>
<path d="M21.4412 69.1236C21.4412 71.6076 20.8667 73.4461 19.7177 74.6393C18.5582 75.8216 16.7715 76.4127 14.3576 76.4127L1.32875 76.4127C0.886021 76.4127 0.553977 76.2988 0.332613 76.071C0.11125 75.8433 0.000567241 75.5016 0.000567222 75.046C0.000567203 74.5905 0.11125 74.2488 0.332613 74.021C0.553976 73.7932 0.88602 73.6793 1.32875 73.6793L14.3576 73.6793C15.4855 73.6793 16.3709 73.5437 17.0139 73.2726C17.6569 72.9905 18.1155 72.5187 18.3895 71.857C18.6531 71.1954 18.7848 70.2842 18.7848 69.1236L18.7848 65.2188C18.7848 64.0582 18.6531 63.147 18.3895 62.4854C18.1155 61.8237 17.6569 61.3573 17.0139 61.0861C16.3709 60.8041 15.4855 60.6631 14.3576 60.6631L1.32875 60.6631C0.88602 60.6631 0.553976 60.5492 0.332612 60.3214C0.111249 60.0936 0.000566573 59.752 0.000566554 59.2964C0.000566534 58.8408 0.111249 58.4991 0.332612 58.2714C0.553976 58.0436 0.88602 57.9297 1.32875 57.9297L14.3576 57.9297C16.7715 57.9297 18.5582 58.5208 19.7177 59.7032C20.8667 60.8855 21.4412 62.724 21.4412 65.2188L21.4412 69.1236Z" fill="white"/>
<path d="M21.4412 10.2374C21.4412 10.693 21.3305 11.0347 21.1091 11.2625C20.8878 11.4903 20.5557 11.6041 20.113 11.6041L2.68855 11.6041L2.68855 17.917C2.68855 18.3726 2.57787 18.7143 2.3565 18.942C2.13514 19.1698 1.80309 19.2837 1.36037 19.2837C0.917641 19.2837 0.585596 19.1698 0.364233 18.942C0.142869 18.7143 0.0321879 18.3726 0.0321879 17.917L0.0321873 2.55787C0.0321873 2.10231 0.142869 1.76063 0.364232 1.53285C0.585596 1.30506 0.917641 1.19118 1.36037 1.19118C1.80309 1.19118 2.13514 1.30506 2.3565 1.53285C2.57786 1.76063 2.68855 2.10231 2.68855 2.55787L2.68855 8.87075L20.113 8.87075C20.5346 8.87075 20.8614 8.99006 21.0933 9.22869C21.3252 9.45648 21.4412 9.79272 21.4412 10.2374Z" fill="white"/>
<defs>
<linearGradient id="paint0_linear_1_46" x1="95.2941" y1="0" x2="95.2941" y2="137.581" gradientUnits="userSpaceOnUse">
<stop stop-color="#FFB347"/>
<stop offset="1" stop-color="#FFCC33"/>
</linearGradient>
<linearGradient id="paint1_linear_1_46" x1="95.2941" y1="0" x2="95.2941" y2="137.581" gradientUnits="userSpaceOnUse">
<stop stop-color="#FFB347"/>
<stop offset="1" stop-color="#FFCC33"/>
</linearGradient>
<linearGradient id="paint2_linear_1_46" x1="95.2941" y1="0" x2="95.2941" y2="137.581" gradientUnits="userSpaceOnUse">
<stop stop-color="#FFB347"/>
<stop offset="1" stop-color="#FFCC33"/>
</linearGradient>
<linearGradient id="paint3_linear_1_46" x1="95.2941" y1="0" x2="95.2941" y2="137.581" gradientUnits="userSpaceOnUse">
<stop stop-color="#FFB347"/>
<stop offset="1" stop-color="#FFCC33"/>
</linearGradient>
<linearGradient id="paint4_linear_1_46" x1="95.2941" y1="0" x2="95.2941" y2="137.581" gradientUnits="userSpaceOnUse">
<stop stop-color="#FFB347"/>
<stop offset="1" stop-color="#FFCC33"/>
</linearGradient>
<linearGradient id="paint5_linear_1_46" x1="95.2941" y1="0" x2="95.2941" y2="137.581" gradientUnits="userSpaceOnUse">
<stop stop-color="#FFB347"/>
<stop offset="1" stop-color="#FFCC33"/>
</linearGradient>
<linearGradient id="paint6_linear_1_46" x1="95.2941" y1="0" x2="95.2941" y2="137.581" gradientUnits="userSpaceOnUse">
<stop stop-color="#FFB347"/>
<stop offset="1" stop-color="#FFCC33"/>
</linearGradient>
<linearGradient id="paint7_linear_1_46" x1="95.2941" y1="0" x2="95.2941" y2="137.581" gradientUnits="userSpaceOnUse">
<stop stop-color="#FFB347"/>
<stop offset="1" stop-color="#FFCC33"/>
</linearGradient>
</defs>
</svg>
