<svg width="334" height="262" viewBox="0 0 334 262" fill="none" xmlns="http://www.w3.org/2000/svg">
<path d="M99.1241 70.2907C94.4604 70.2907 91.1467 68.9611 89.183 66.302C87.2602 63.6428 86.2988 59.8791 86.2988 55.0108V34.3922C86.2988 29.5648 87.2807 25.8829 89.2443 23.3465C91.208 20.7691 94.5013 19.4805 99.1241 19.4805C103.665 19.4805 106.917 20.7691 108.881 23.3465C110.845 25.9238 111.827 29.6057 111.827 34.3922V55.0722C111.827 59.9405 110.865 63.7042 108.943 66.3633C107.02 68.9816 103.747 70.2907 99.1241 70.2907ZM99.1241 66.5474C102.151 66.5474 104.238 65.6679 105.383 63.9087C106.529 62.1087 107.102 59.4905 107.102 56.054V33.5331C107.102 30.0966 106.529 27.5193 105.383 25.8011C104.279 24.0828 102.192 23.2237 99.1241 23.2237C96.015 23.2237 93.8876 24.0828 92.7422 25.8011C91.5967 27.4784 91.0239 30.0557 91.0239 33.5331V56.054C91.0239 59.5314 91.5967 62.1496 92.7422 63.9087C93.8876 65.6679 96.015 66.5474 99.1241 66.5474Z" fill="#FFC935"/>
<path d="M119.583 19.9714H137.44V23.4692H124.246V42.1855H135.231V45.622H124.246V69.677H119.583V19.9714Z" fill="#FFC935"/>
<path d="M176.552 101.68C168.233 101.68 162.324 99.3687 158.825 94.7471C155.392 90.0594 153.675 83.4571 153.675 74.9401V46.319C153.675 37.5378 155.392 30.8695 158.825 26.3139C162.258 21.7583 168.167 19.4805 176.552 19.4805C184.409 19.4805 189.988 21.4612 193.289 25.4226C196.59 29.384 198.241 35.095 198.241 42.5556V49.29H184.178V42.3576C184.178 39.5186 184.046 37.3068 183.782 35.7222C183.518 34.0716 182.825 32.7512 181.702 31.7608C180.646 30.7044 178.962 30.1763 176.651 30.1763C174.275 30.1763 172.492 30.7375 171.304 31.8598C170.115 32.9162 169.323 34.3687 168.927 36.2174C168.597 38 168.432 40.3438 168.432 43.2489V78.0101C168.432 82.5658 169.026 85.8669 170.214 87.9136C171.403 89.8943 173.548 90.8847 176.651 90.8847C178.896 90.8847 180.547 90.3565 181.603 89.3001C182.726 88.2438 183.419 86.8573 183.683 85.1407C184.013 83.358 184.178 81.0142 184.178 78.1092V70.8796H198.241V77.3169C198.241 85.0416 196.623 91.0498 193.388 95.3413C190.153 99.5668 184.541 101.68 176.552 101.68Z" fill="white"/>
<path d="M237.265 101.68C228.946 101.68 223.004 99.4677 219.438 95.0442C215.873 90.5546 214.09 84.0183 214.09 75.4352V45.3286C214.09 36.8116 215.873 30.3743 219.438 26.0168C223.004 21.6592 228.946 19.4805 237.265 19.4805C245.518 19.4805 251.427 21.6592 254.992 26.0168C258.557 30.3743 260.34 36.8116 260.34 45.3286V75.4352C260.34 83.9522 258.524 90.4555 254.893 94.9451C251.328 99.4347 245.452 101.68 237.265 101.68ZM237.265 90.8847C240.5 90.8847 242.679 89.8613 243.801 87.8146C244.923 85.7679 245.485 82.7968 245.485 78.9015V41.9614C245.485 38.066 244.923 35.128 243.801 33.1473C242.745 31.1666 240.566 30.1763 237.265 30.1763C233.964 30.1763 231.752 31.1996 230.629 33.2463C229.507 35.227 228.946 38.1321 228.946 41.9614V78.9015C228.946 82.7968 229.507 85.7679 230.629 87.8146C231.752 89.8613 233.964 90.8847 237.265 90.8847Z" fill="white"/>
<path d="M278.114 20.3718H288.315L307.825 66.126V20.3718H319.907V100.59H310.202L290.593 52.6572V100.59H278.114V20.3718Z" fill="white"/>
<path d="M99.0743 145.627H86.2988V134.832H126.21V145.627H113.732V215.05H99.0743V145.627Z" fill="white"/>
<path d="M153.317 134.832H186.989V145.132H167.875V168.207H182.928V178.407H167.875V205.048H187.187V215.05H153.317V134.832Z" fill="white"/>
<path d="M226.576 172.465L210.929 134.832H224.596L234.994 159.789L244.106 134.832H256.683L241.333 175.238L257.872 215.05H244.304L232.915 188.014L223.011 215.05H210.434L226.576 172.465Z" fill="white"/>
<path d="M292.734 145.627H279.959V134.832H319.87V145.627H307.391V215.05H292.734V145.627Z" fill="white"/>
<path d="M116.929 244.274C116.917 243.629 116.684 243.115 116.23 242.732C115.776 242.338 115.22 242.14 114.562 242.14C113.941 242.14 113.415 242.332 112.984 242.714C112.566 243.085 112.309 243.605 112.213 244.274H116.929Z" fill="url(#paint0_linear_473_319)"/>
<path d="M136.036 243.647C136.275 244.077 136.394 244.597 136.394 245.207C136.394 245.816 136.275 246.342 136.036 246.785C135.797 247.215 135.474 247.55 135.067 247.789C134.661 248.016 134.225 248.13 133.758 248.13C133.304 248.13 132.874 248.01 132.467 247.771C132.073 247.532 131.75 247.191 131.499 246.749C131.26 246.295 131.14 245.769 131.14 245.171C131.14 244.573 131.26 244.059 131.499 243.629C131.75 243.186 132.073 242.852 132.467 242.624C132.862 242.397 133.292 242.284 133.758 242.284C134.225 242.284 134.661 242.403 135.067 242.642C135.474 242.87 135.797 243.204 136.036 243.647Z" fill="url(#paint1_linear_473_319)"/>
<path d="M149.803 244.274C149.791 243.629 149.558 243.115 149.104 242.732C148.65 242.338 148.094 242.14 147.436 242.14C146.814 242.14 146.288 242.332 145.858 242.714C145.44 243.085 145.183 243.605 145.087 244.274H149.803Z" fill="url(#paint2_linear_473_319)"/>
<path d="M181.193 243.647C181.432 244.077 181.551 244.597 181.551 245.207C181.551 245.816 181.432 246.342 181.193 246.785C180.954 247.215 180.631 247.55 180.224 247.789C179.818 248.016 179.381 248.13 178.915 248.13C178.461 248.13 178.031 248.01 177.624 247.771C177.23 247.532 176.907 247.191 176.656 246.749C176.417 246.295 176.297 245.769 176.297 245.171C176.297 244.573 176.417 244.059 176.656 243.629C176.907 243.186 177.23 242.852 177.624 242.624C178.019 242.397 178.449 242.284 178.915 242.284C179.381 242.284 179.818 242.403 180.224 242.642C180.631 242.87 180.954 243.204 181.193 243.647Z" fill="url(#paint3_linear_473_319)"/>
<path d="M228.862 245.207C228.862 244.597 228.743 244.077 228.503 243.647C228.264 243.204 227.942 242.87 227.535 242.642C227.129 242.403 226.692 242.284 226.226 242.284C225.76 242.284 225.329 242.397 224.935 242.624C224.54 242.852 224.218 243.186 223.967 243.629C223.727 244.059 223.608 244.573 223.608 245.171C223.608 245.769 223.727 246.295 223.967 246.749C224.218 247.191 224.54 247.532 224.935 247.771C225.341 248.01 225.772 248.13 226.226 248.13C226.692 248.13 227.129 248.016 227.535 247.789C227.942 247.55 228.264 247.215 228.503 246.785C228.743 246.342 228.862 245.816 228.862 245.207Z" fill="url(#paint4_linear_473_319)"/>
<path d="M267.296 243.647C267.536 244.077 267.655 244.597 267.655 245.207C267.655 245.816 267.536 246.342 267.296 246.785C267.057 247.215 266.735 247.55 266.328 247.789C265.922 248.016 265.485 248.13 265.019 248.13C264.565 248.13 264.134 248.01 263.728 247.771C263.333 247.532 263.011 247.191 262.76 246.749C262.52 246.295 262.401 245.769 262.401 245.171C262.401 244.573 262.52 244.059 262.76 243.629C263.011 243.186 263.333 242.852 263.728 242.624C264.122 242.397 264.553 242.284 265.019 242.284C265.485 242.284 265.922 242.403 266.328 242.642C266.735 242.87 267.057 243.204 267.296 243.647Z" fill="url(#paint5_linear_473_319)"/>
<path d="M301.235 248.148C301.689 248.148 302.113 248.04 302.508 247.825C302.914 247.598 303.237 247.263 303.476 246.821C303.715 246.378 303.835 245.84 303.835 245.207C303.835 244.262 303.584 243.539 303.082 243.037C302.592 242.523 301.988 242.266 301.271 242.266C300.553 242.266 299.95 242.523 299.459 243.037C298.981 243.539 298.742 244.262 298.742 245.207C298.742 246.151 298.975 246.88 299.441 247.394C299.92 247.897 300.517 248.148 301.235 248.148Z" fill="url(#paint6_linear_473_319)"/>
<path fill-rule="evenodd" clip-rule="evenodd" d="M72.499 261.5V0H334V261.5H72.499ZM75.9857 3.48667H330.513V227.978H75.9857V3.48667ZM168.867 239.056C168.425 239.056 168.054 238.918 167.755 238.643C167.469 238.357 167.325 238.004 167.325 237.585C167.325 237.167 167.469 236.82 167.755 236.545C168.054 236.258 168.425 236.115 168.867 236.115C169.31 236.115 169.674 236.258 169.961 236.545C170.26 236.82 170.409 237.167 170.409 237.585C170.409 238.004 170.26 238.357 169.961 238.643C169.674 238.918 169.31 239.056 168.867 239.056ZM170.105 250.174H167.594V240.239H170.105V250.174ZM104.249 240.598C103.663 240.263 102.993 240.096 102.24 240.096C101.583 240.096 100.985 240.221 100.447 240.473C99.909 240.712 99.4787 241.046 99.1559 241.477V236.904H96.6453V250.174H99.1559V244.687C99.1559 243.898 99.3531 243.294 99.7477 242.876C100.154 242.445 100.704 242.23 101.397 242.23C102.079 242.23 102.617 242.445 103.011 242.876C103.406 243.294 103.603 243.898 103.603 244.687V250.174H106.114V244.346C106.114 243.449 105.946 242.684 105.612 242.051C105.289 241.405 104.834 240.921 104.249 240.598ZM90.8228 247.108V242.302H93.0464V240.239H90.8228V237.783H88.2943V240.239H87.1107V242.302H88.2943V247.09C88.2943 249.146 89.3523 250.174 91.4683 250.174H93.0464V248.058H91.8808C91.4982 248.058 91.2233 247.986 91.0559 247.843C90.9005 247.687 90.8228 247.442 90.8228 247.108ZM119.53 244.992C119.53 245.35 119.506 245.673 119.458 245.96H112.195C112.255 246.677 112.506 247.239 112.948 247.646C113.391 248.052 113.935 248.255 114.58 248.255C115.513 248.255 116.176 247.855 116.571 247.054H119.278C118.992 248.01 118.442 248.799 117.629 249.421C116.816 250.031 115.818 250.335 114.634 250.335C113.678 250.335 112.817 250.126 112.052 249.708C111.299 249.277 110.707 248.674 110.276 247.897C109.858 247.12 109.649 246.223 109.649 245.207C109.649 244.179 109.858 243.276 110.276 242.499C110.695 241.722 111.281 241.124 112.034 240.706C112.787 240.287 113.654 240.078 114.634 240.078C115.578 240.078 116.421 240.281 117.162 240.688C117.916 241.094 118.495 241.674 118.902 242.427C119.32 243.168 119.53 244.023 119.53 244.992ZM129.168 242.499C128.773 243.276 128.576 244.167 128.576 245.171C128.576 246.187 128.773 247.09 129.168 247.879C129.574 248.656 130.124 249.259 130.817 249.69C131.511 250.12 132.276 250.335 133.113 250.335C133.854 250.335 134.506 250.186 135.067 249.887C135.629 249.588 136.066 249.194 136.377 248.704V250.174H138.923V236.904H136.377V241.62C136.03 241.154 135.564 240.783 134.978 240.508C134.392 240.221 133.776 240.078 133.131 240.078C132.282 240.078 131.511 240.287 130.817 240.706C130.124 241.124 129.574 241.722 129.168 242.499ZM152.403 244.992C152.403 245.35 152.379 245.673 152.332 245.96H145.069C145.129 246.677 145.38 247.239 145.822 247.646C146.264 248.052 146.808 248.255 147.454 248.255C148.386 248.255 149.05 247.855 149.445 247.054H152.152C151.865 248.01 151.315 248.799 150.503 249.421C149.69 250.031 148.691 250.335 147.508 250.335C146.551 250.335 145.691 250.126 144.926 249.708C144.172 249.277 143.581 248.674 143.15 247.897C142.732 247.12 142.523 246.223 142.523 245.207C142.523 244.179 142.732 243.276 143.15 242.499C143.569 241.722 144.154 241.124 144.908 240.706C145.661 240.287 146.527 240.078 147.508 240.078C148.452 240.078 149.295 240.281 150.036 240.688C150.789 241.094 151.369 241.674 151.776 242.427C152.194 243.168 152.403 244.023 152.403 244.992ZM157.643 249.905C158.289 250.192 159.018 250.335 159.831 250.335C160.62 250.335 161.307 250.21 161.893 249.959C162.491 249.696 162.945 249.337 163.256 248.883C163.579 248.429 163.74 247.915 163.74 247.341C163.728 246.683 163.549 246.157 163.202 245.763C162.867 245.356 162.467 245.057 162.001 244.866C161.534 244.675 160.943 244.489 160.225 244.31C159.52 244.131 159 243.957 158.665 243.79C158.33 243.611 158.163 243.354 158.163 243.019C158.163 242.72 158.283 242.487 158.522 242.32C158.773 242.152 159.125 242.069 159.58 242.069C160.07 242.069 160.458 242.188 160.745 242.427C161.044 242.654 161.212 242.965 161.247 243.36H163.65C163.579 242.355 163.19 241.56 162.485 240.975C161.779 240.377 160.835 240.078 159.651 240.078C158.85 240.078 158.151 240.21 157.553 240.473C156.968 240.736 156.513 241.094 156.19 241.549C155.88 242.003 155.724 242.505 155.724 243.055C155.724 243.724 155.892 244.256 156.226 244.651C156.573 245.045 156.979 245.338 157.446 245.53C157.924 245.721 158.534 245.906 159.275 246.085C159.992 246.277 160.512 246.456 160.835 246.623C161.17 246.779 161.337 247.018 161.337 247.341C161.337 247.64 161.2 247.885 160.925 248.076C160.662 248.267 160.291 248.363 159.813 248.363C159.323 248.363 158.91 248.237 158.575 247.986C158.253 247.735 158.067 247.418 158.02 247.036H155.491C155.527 247.646 155.73 248.201 156.101 248.704C156.483 249.206 156.997 249.606 157.643 249.905ZM180.224 240.526C179.662 240.227 179.011 240.078 178.27 240.078C177.421 240.078 176.65 240.287 175.956 240.706C175.275 241.124 174.731 241.722 174.325 242.499C173.93 243.276 173.733 244.167 173.733 245.171C173.733 246.187 173.93 247.09 174.325 247.879C174.731 248.656 175.281 249.259 175.974 249.69C176.668 250.12 177.433 250.335 178.27 250.335C178.999 250.335 179.644 250.18 180.206 249.869C180.78 249.558 181.229 249.17 181.551 248.704V250.246C181.551 251.13 181.324 251.788 180.87 252.218C180.416 252.661 179.824 252.882 179.095 252.882C178.473 252.882 177.941 252.744 177.499 252.469C177.068 252.206 176.787 251.848 176.656 251.393H174.163C174.283 252.529 174.791 253.426 175.687 254.083C176.596 254.741 177.756 255.07 179.166 255.07C180.218 255.07 181.115 254.854 181.856 254.424C182.597 254.006 183.153 253.432 183.524 252.702C183.894 251.985 184.08 251.166 184.08 250.246V240.239H181.551V241.656C181.229 241.19 180.786 240.813 180.224 240.526ZM193.83 240.096C195.014 240.096 195.97 240.473 196.699 241.226C197.429 241.967 197.793 243.007 197.793 244.346V250.174H195.283V244.687C195.283 243.898 195.086 243.294 194.691 242.876C194.296 242.445 193.759 242.23 193.077 242.23C192.384 242.23 191.834 242.445 191.427 242.876C191.033 243.294 190.836 243.898 190.836 244.687V250.174H188.325V240.239H190.836V241.477C191.17 241.046 191.595 240.712 192.109 240.473C192.635 240.221 193.209 240.096 193.83 240.096ZM215.644 240.598C215.058 240.263 214.388 240.096 213.635 240.096C212.978 240.096 212.38 240.221 211.842 240.473C211.304 240.712 210.874 241.046 210.551 241.477V236.904H208.04V250.174H210.551V244.687C210.551 243.898 210.748 243.294 211.142 242.876C211.549 242.445 212.099 242.23 212.792 242.23C213.474 242.23 214.012 242.445 214.406 242.876C214.801 243.294 214.998 243.898 214.998 244.687V250.174H217.509V244.346C217.509 243.449 217.341 242.684 217.006 242.051C216.684 241.405 216.229 240.921 215.644 240.598ZM221.044 245.171C221.044 244.167 221.241 243.276 221.635 242.499C222.042 241.722 222.586 241.124 223.267 240.706C223.961 240.287 224.732 240.078 225.581 240.078C226.322 240.078 226.967 240.227 227.517 240.526C228.079 240.825 228.527 241.202 228.862 241.656V240.239H231.391V250.174H228.862V248.721C228.539 249.188 228.091 249.576 227.517 249.887C226.955 250.186 226.304 250.335 225.563 250.335C224.726 250.335 223.961 250.12 223.267 249.69C222.586 249.259 222.042 248.656 221.635 247.879C221.241 247.09 221.044 246.187 221.044 245.171ZM235.618 242.517C235.199 243.282 234.99 244.179 234.99 245.207C234.99 246.235 235.199 247.137 235.618 247.915C236.036 248.68 236.616 249.277 237.357 249.708C238.099 250.126 238.947 250.335 239.904 250.335C241.123 250.335 242.139 250.019 242.952 249.385C243.765 248.751 244.309 247.897 244.584 246.821H241.876C241.565 247.729 240.902 248.184 239.886 248.184C239.169 248.184 238.601 247.926 238.182 247.412C237.764 246.886 237.555 246.151 237.555 245.207C237.555 244.25 237.764 243.515 238.182 243.001C238.601 242.475 239.169 242.212 239.886 242.212C240.388 242.212 240.806 242.338 241.141 242.589C241.488 242.828 241.733 243.162 241.876 243.593H244.584C244.309 242.481 243.765 241.62 242.952 241.011C242.151 240.389 241.135 240.078 239.904 240.078C238.947 240.078 238.099 240.293 237.357 240.724C236.616 241.142 236.036 241.74 235.618 242.517ZM250.727 250.174H248.217V236.904H250.727V244.454L254.063 240.239H257.326L252.951 245.225L257.362 250.174H254.098L250.727 245.942V250.174ZM260.428 242.499C260.034 243.276 259.837 244.167 259.837 245.171C259.837 246.187 260.034 247.09 260.428 247.879C260.835 248.656 261.379 249.259 262.06 249.69C262.754 250.12 263.519 250.335 264.355 250.335C265.097 250.335 265.748 250.186 266.31 249.887C266.884 249.576 267.332 249.188 267.655 248.721V250.174H270.184V240.239H267.655V241.656C267.32 241.202 266.872 240.825 266.31 240.526C265.76 240.227 265.115 240.078 264.373 240.078C263.525 240.078 262.754 240.287 262.06 240.706C261.379 241.124 260.835 241.722 260.428 242.499ZM277.352 242.302V247.108C277.352 247.442 277.429 247.687 277.585 247.843C277.752 247.986 278.027 248.058 278.41 248.058H279.575V250.174H277.997C275.881 250.174 274.823 249.146 274.823 247.09V242.302H273.64V240.239H274.823V237.783H277.352V240.239H279.575V242.302H277.352ZM290.778 240.598C290.192 240.263 289.522 240.096 288.769 240.096C288.112 240.096 287.514 240.221 286.976 240.473C286.438 240.712 286.008 241.046 285.685 241.477V236.904H283.174V250.174H285.685V244.687C285.685 243.898 285.882 243.294 286.277 242.876C286.683 242.445 287.233 242.23 287.926 242.23C288.608 242.23 289.146 242.445 289.54 242.876C289.935 243.294 290.132 243.898 290.132 244.687V250.174H292.643V244.346C292.643 243.449 292.475 242.684 292.141 242.051C291.818 241.405 291.363 240.921 290.778 240.598ZM301.235 250.335C300.278 250.335 299.418 250.126 298.652 249.708C297.887 249.277 297.284 248.674 296.841 247.897C296.411 247.12 296.196 246.223 296.196 245.207C296.196 244.191 296.417 243.294 296.859 242.517C297.313 241.74 297.929 241.142 298.706 240.724C299.483 240.293 300.35 240.078 301.306 240.078C302.263 240.078 303.13 240.293 303.907 240.724C304.684 241.142 305.293 241.74 305.736 242.517C306.19 243.294 306.417 244.191 306.417 245.207C306.417 246.223 306.184 247.12 305.718 247.897C305.264 248.674 304.642 249.277 303.853 249.708C303.076 250.126 302.203 250.335 301.235 250.335ZM318.426 241.226C317.697 240.473 316.741 240.096 315.557 240.096C314.936 240.096 314.362 240.221 313.836 240.473C313.322 240.712 312.897 241.046 312.563 241.477V240.239H310.052V250.174H312.563V244.687C312.563 243.898 312.76 243.294 313.154 242.876C313.561 242.445 314.111 242.23 314.804 242.23C315.486 242.23 316.024 242.445 316.418 242.876C316.813 243.294 317.01 243.898 317.01 244.687V250.174H319.52V244.346C319.52 243.007 319.156 241.967 318.426 241.226Z" fill="url(#paint7_linear_473_319)"/>
<path d="M60 242.632C60 247.341 58.8792 250.827 56.6377 253.089C54.3756 255.33 50.8899 256.451 46.1806 256.451L31.9293 256.451C27.1788 256.451 23.6931 255.32 21.4721 253.058C19.2306 250.796 18.1304 247.321 18.1715 242.632L18.1715 235.228C18.1715 230.499 19.2923 227.013 21.5338 224.771C23.7754 222.53 27.2611 221.409 31.991 221.409L46.1806 221.409C50.8899 221.409 54.3756 222.53 56.6377 224.771C58.8792 227.013 60 230.499 60 235.228L60 242.632ZM54.8177 242.632L54.8177 235.228C54.8177 233.028 54.5607 231.301 54.0465 230.046C53.5119 228.792 52.6173 227.907 51.3628 227.393C50.1084 226.859 48.381 226.591 46.1806 226.591L31.991 226.591C29.8111 226.591 28.094 226.859 26.8395 227.393C25.5851 227.907 24.6905 228.792 24.1558 230.046C23.6211 231.301 23.3538 233.028 23.3538 235.228L23.3538 242.632C23.3332 244.812 23.58 246.529 24.0941 247.783C24.6083 249.038 25.4925 249.932 26.747 250.467C28.0014 251.002 29.7288 251.269 31.9293 251.269L46.1806 251.269C48.381 251.269 50.1084 251.012 51.3629 250.498C52.6173 249.963 53.5119 249.068 54.0465 247.814C54.5607 246.56 54.8177 244.832 54.8177 242.632ZM60 131.179C60 135.889 58.8792 139.374 56.6377 141.636C54.3756 143.878 50.8899 144.999 46.1806 144.999L20.7627 144.999C19.8989 144.999 19.2512 144.783 18.8193 144.351C18.3874 143.919 18.1715 143.271 18.1715 142.408C18.1715 141.544 18.3874 140.896 18.8193 140.464C19.2512 140.032 19.8989 139.816 20.7627 139.816L46.1806 139.816C48.381 139.816 50.1084 139.559 51.3628 139.045C52.6173 138.511 53.5118 137.616 54.0465 136.362C54.5606 135.107 54.8177 133.38 54.8177 131.179L54.8177 123.776C54.8177 121.576 54.5606 119.848 54.0465 118.594C53.5118 117.339 52.6173 116.455 51.3628 115.941C50.1084 115.406 48.381 115.139 46.1806 115.139L20.7627 115.139C19.8989 115.139 19.2512 114.923 18.8193 114.491C18.3874 114.059 18.1715 113.411 18.1715 112.548C18.1715 111.684 18.3874 111.036 18.8193 110.604C19.2512 110.172 19.8989 109.957 20.7627 109.957L46.1806 109.957C50.8899 109.957 54.3756 111.077 56.6377 113.319C58.8792 115.56 60 119.046 60 123.776L60 131.179ZM60 19.5364C60 20.4001 59.7841 21.0479 59.3522 21.4798C58.9203 21.9116 58.2726 22.1275 57.4088 22.1275L23.4155 22.1275L23.4155 34.0962C23.4155 34.9599 23.1996 35.6077 22.7677 36.0395C22.3358 36.4714 21.6881 36.6873 20.8243 36.6873C19.9606 36.6873 19.3128 36.4714 18.881 36.0395C18.4491 35.6077 18.2332 34.9599 18.2332 34.0962L18.2332 4.97664C18.2332 4.11292 18.4491 3.46514 18.881 3.03328C19.3128 2.60142 19.9606 2.38549 20.8243 2.38549C21.6881 2.38549 22.3358 2.60142 22.7677 3.03328C23.1996 3.46514 23.4155 4.11292 23.4155 4.97664L23.4155 16.9453L57.4088 16.9453C58.2314 16.9453 58.8689 17.1715 59.3214 17.6239C59.7738 18.0557 60 18.6933 60 19.5364Z" fill="white"/>
<defs>
<linearGradient id="paint0_linear_473_319" x1="203.25" y1="0" x2="203.25" y2="261.5" gradientUnits="userSpaceOnUse">
<stop stop-color="#FFB347"/>
<stop offset="1" stop-color="#FFCC33"/>
</linearGradient>
<linearGradient id="paint1_linear_473_319" x1="203.25" y1="0" x2="203.25" y2="261.5" gradientUnits="userSpaceOnUse">
<stop stop-color="#FFB347"/>
<stop offset="1" stop-color="#FFCC33"/>
</linearGradient>
<linearGradient id="paint2_linear_473_319" x1="203.25" y1="0" x2="203.25" y2="261.5" gradientUnits="userSpaceOnUse">
<stop stop-color="#FFB347"/>
<stop offset="1" stop-color="#FFCC33"/>
</linearGradient>
<linearGradient id="paint3_linear_473_319" x1="203.25" y1="0" x2="203.25" y2="261.5" gradientUnits="userSpaceOnUse">
<stop stop-color="#FFB347"/>
<stop offset="1" stop-color="#FFCC33"/>
</linearGradient>
<linearGradient id="paint4_linear_473_319" x1="203.25" y1="0" x2="203.25" y2="261.5" gradientUnits="userSpaceOnUse">
<stop stop-color="#FFB347"/>
<stop offset="1" stop-color="#FFCC33"/>
</linearGradient>
<linearGradient id="paint5_linear_473_319" x1="203.25" y1="0" x2="203.25" y2="261.5" gradientUnits="userSpaceOnUse">
<stop stop-color="#FFB347"/>
<stop offset="1" stop-color="#FFCC33"/>
</linearGradient>
<linearGradient id="paint6_linear_473_319" x1="203.25" y1="0" x2="203.25" y2="261.5" gradientUnits="userSpaceOnUse">
<stop stop-color="#FFB347"/>
<stop offset="1" stop-color="#FFCC33"/>
</linearGradient>
<linearGradient id="paint7_linear_473_319" x1="203.25" y1="0" x2="203.25" y2="261.5" gradientUnits="userSpaceOnUse">
<stop stop-color="#FFB347"/>
<stop offset="1" stop-color="#FFCC33"/>
</linearGradient>
</defs>
</svg>
