<svg width="86" height="86" viewBox="0 0 86 86" fill="none" xmlns="http://www.w3.org/2000/svg">
<path d="M71.6667 25.0833H67.3344C67.86 23.341 68.1126 21.5279 68.0833 19.7083C68.0833 12.7925 62.4575 7.16663 55.5417 7.16663C49.7295 7.16663 45.8488 12.4771 43.344 18.2212C40.8751 12.7925 36.7973 7.16663 30.4583 7.16663C23.5425 7.16663 17.9167 12.7925 17.9167 19.7083C17.9167 21.844 18.1998 23.6105 18.6656 25.0833H14.3333C10.3809 25.0833 7.16667 28.2975 7.16667 32.25V39.4166C7.16667 43.369 10.3809 46.5833 14.3333 46.5833V71.6666C14.3333 75.619 17.5476 78.8333 21.5 78.8333H64.5C68.4524 78.8333 71.6667 75.619 71.6667 71.6666V46.5833C75.6191 46.5833 78.8333 43.369 78.8333 39.4166V32.25C78.8333 28.2975 75.6191 25.0833 71.6667 25.0833ZM55.5417 14.3333C58.5051 14.3333 60.9167 16.7449 60.9167 19.7083C60.9167 25.0833 58.6735 25.0833 57.3333 25.0833H48.4538C50.2849 19.436 52.9438 14.3333 55.5417 14.3333ZM25.0833 19.7083C25.0833 16.7449 27.4949 14.3333 30.4583 14.3333C33.6403 14.3333 36.6002 19.7979 38.3345 25.0833H28.6667C27.3265 25.0833 25.0833 25.0833 25.0833 19.7083ZM14.3333 32.25H39.4167V39.4166H14.3333V32.25ZM21.5 71.6666V46.5833H39.4167V71.6666H21.5ZM64.5 71.6666H46.5833V46.5833H64.5V71.6666ZM46.5833 39.4166V32.5545L46.6443 32.25H71.6667L71.6703 39.4166H46.5833Z" fill="black"/>
</svg>
