<svg width="39" height="30" viewBox="0 0 39 30" fill="none" xmlns="http://www.w3.org/2000/svg">
<g clip-path="url(#clip0_201_296)">
<path d="M32.4234 2.50206C29.9132 1.31785 27.2576 0.476412 24.5269 0C24.1867 0.62005 23.7893 1.45402 23.5152 2.11749C20.571 1.67111 17.6538 1.67111 14.7637 2.11749C14.4898 1.45417 14.0834 0.62005 13.7401 0C11.0067 0.476631 8.34883 1.32021 5.83748 2.50824C0.840088 10.1227 -0.514669 17.5477 0.162635 24.8677C3.47723 27.3635 6.68942 28.8796 9.84747 29.8717C10.6323 28.7834 11.3261 27.6313 11.9217 26.4271C10.7878 25.9919 9.69471 25.4555 8.65539 24.8243C8.9289 24.6199 9.19596 24.4069 9.45619 24.1856C15.7541 27.1557 22.5971 27.1557 28.8199 24.1856C29.0813 24.4054 29.3482 24.6184 29.6205 24.8243C28.5796 25.4571 27.4844 25.9946 26.3483 26.4303C26.9472 27.6393 27.6398 28.7926 28.4225 29.8747C31.5835 28.8828 34.7987 27.3666 38.1133 24.8677C38.9081 16.3821 36.7557 9.02503 32.4234 2.50191V2.50206ZM12.7798 20.3661C10.8891 20.3661 9.33867 18.5864 9.33867 16.4193C9.33867 14.2523 10.8561 12.4696 12.7798 12.4696C14.7036 12.4696 16.2539 14.2491 16.2209 16.4193C16.2238 18.5864 14.7036 20.3661 12.7798 20.3661ZM25.4962 20.3661C23.6056 20.3661 22.0552 18.5864 22.0552 16.4193C22.0552 14.2523 23.5725 12.4696 25.4962 12.4696C27.42 12.4696 28.9703 14.2491 28.9373 16.4193C28.9373 18.5864 27.42 20.3661 25.4962 20.3661Z" fill="white"/>
</g>
<defs>
<clipPath id="clip0_201_296">
<rect width="38.2759" height="30" fill="white"/>
</clipPath>
</defs>
</svg>
