<svg width="72" height="87" viewBox="0 0 72 87" fill="none" xmlns="http://www.w3.org/2000/svg">
<path d="M15.3925 26.7714C17.2242 24.9604 15.0314 22.6314 14.9985 22.5788C16.0023 26.8913 10.9188 25.6837 12.6752 22.9532C14.4311 20.2228 13.8086 15.3089 13.8086 15.3089C13.5131 16.8123 10.8991 18.6004 10.8991 18.6004C6.2418 21.328 6.31022 23.6256 6.61786 24.5799C6.79162 24.5209 6.97792 24.4887 7.17163 24.4887C8.12397 24.4887 8.89603 25.2639 8.89603 26.2199C8.89603 26.9059 8.49855 27.4988 7.92236 27.7787C7.9193 27.7804 7.91624 27.7817 7.91318 27.7831C7.76835 27.8524 7.61265 27.9022 7.44876 27.9285L7.45014 27.9346C5.92606 28.1872 3.81346 26.1626 3.81346 26.1626C3.71927 28.2518 4.97718 29.3187 5.40517 29.7767C5.60509 29.991 5.75536 30.0756 5.75536 30.0756C5.35185 30.092 5.00976 30.0545 4.72157 29.9739C2.22106 29.278 3.09955 25.6165 3.09955 25.6165C0.515119 27.8629 1.51969 29.6119 2.09291 30.7338C2.32611 31.1897 2.59159 31.5 2.70443 31.6211L14.4334 27.5581" fill="#FFC638"/>
<path d="M15.3925 26.7714C17.2242 24.9604 15.0314 22.6314 14.9985 22.5788C16.0023 26.8913 10.9188 25.6837 12.6752 22.9532C14.4311 20.2228 13.8086 15.3089 13.8086 15.3089C13.5131 16.8123 10.8991 18.6004 10.8991 18.6004C6.2418 21.328 6.31022 23.6256 6.61786 24.5799C6.79162 24.5209 6.97792 24.4887 7.17163 24.4887C8.12397 24.4887 8.89603 25.2639 8.89603 26.2199C8.89603 26.9059 8.49855 27.4988 7.92236 27.7787C7.9193 27.7804 7.91624 27.7817 7.91318 27.7831C7.76835 27.8524 7.61265 27.9022 7.44876 27.9285L7.45014 27.9346C5.92606 28.1872 3.81346 26.1626 3.81346 26.1626C3.71927 28.2518 4.97718 29.3187 5.40517 29.7767C5.60509 29.991 5.75536 30.0756 5.75536 30.0756C5.35185 30.092 5.00976 30.0545 4.72157 29.9739C2.22106 29.278 3.09955 25.6165 3.09955 25.6165C0.515119 27.8629 1.51969 29.6119 2.09291 30.7338C2.32611 31.1897 2.59159 31.5 2.70443 31.6211L14.4334 27.5581" stroke="#FFC638" stroke-width="0.170209" stroke-miterlimit="10" stroke-linecap="round" stroke-linejoin="round"/>
<path d="M29.3215 7.90234C28.8966 7.98976 28.2993 8.11158 28.0977 8.51668C27.7917 9.13101 28.1945 9.43828 28.7096 9.43828C28.8843 9.43828 29.3215 9.13101 29.3215 8.51668C29.3215 8.51668 30.0328 8.84644 29.793 9.74208C29.6275 10.3598 29.1488 10.6851 28.4124 11.2168H28.4121C28.4082 11.2191 28.4024 11.2226 28.3954 11.2268C27.6799 11.6548 27.3139 12.2762 27.1798 12.5101C27.0504 12.7355 26.6854 13.3888 26.6769 14.2378C26.663 15.632 27.6223 16.8608 28.7096 17.4249C29.4251 17.796 30.0763 17.8164 30.7705 17.8383C32.0476 17.8782 33.0715 17.5696 33.6942 17.3263C33.0604 18.1689 31.1041 19.8995 28.0977 21.4182C24.8717 23.0478 21.7894 21.9163 21.2854 21.7217V15.9925C21.2854 15.9925 17.0296 13.1589 19.8278 9.28088C19.8278 9.28088 20.5561 11.7387 22.6255 11.6991C24.6949 11.6595 25.8576 9.22597 23.473 7.56415C23.473 7.56415 24.7146 5.38761 28.1633 4.77427C31.5378 4.17421 31.1207 1.43319 31.1013 1.31573C31.1329 1.47383 32.1786 6.80193 29.3215 7.59517C29.3212 7.59547 28.7096 7.90234 29.3215 7.90234Z" fill="#FFC638"/>
<path d="M29.3215 7.90234C28.8966 7.98976 28.2993 8.11158 28.0977 8.51668C27.7917 9.13101 28.1945 9.43828 28.7096 9.43828C28.8843 9.43828 29.3215 9.13101 29.3215 8.51668C29.3215 8.51668 30.0328 8.84644 29.793 9.74208C29.6275 10.3598 29.1488 10.6851 28.4124 11.2168H28.4121C28.4082 11.2191 28.4024 11.2226 28.3954 11.2268C27.6799 11.6548 27.3139 12.2762 27.1798 12.5101C27.0504 12.7355 26.6854 13.3888 26.6769 14.2378C26.663 15.632 27.6223 16.8608 28.7096 17.4249C29.4251 17.796 30.0763 17.8164 30.7705 17.8383C32.0476 17.8782 33.0715 17.5696 33.6942 17.3263C33.0604 18.1689 31.1041 19.8995 28.0977 21.4182C24.8717 23.0478 21.7894 21.9163 21.2854 21.7217V15.9925C21.2854 15.9925 17.0296 13.1589 19.8278 9.28088C19.8278 9.28088 20.5561 11.7387 22.6255 11.6991C24.6949 11.6595 25.8576 9.22597 23.473 7.56415C23.473 7.56415 24.7146 5.38761 28.1633 4.77427C31.5378 4.17421 31.1207 1.43319 31.1013 1.31573C31.1329 1.47383 32.1786 6.80193 29.3215 7.59517C29.3212 7.59547 28.7096 7.90234 29.3215 7.90234Z" stroke="#FFC638" stroke-width="0.170209" stroke-miterlimit="10" stroke-linecap="round" stroke-linejoin="round"/>
<path d="M42.5216 7.86329C42.9466 7.95071 43.5439 8.07253 43.7455 8.47763C44.0515 9.09196 43.6486 9.39923 43.1336 9.39923C42.9588 9.39923 42.5216 9.09196 42.5216 8.47763C42.5216 8.47763 41.8104 8.80739 42.0501 9.70302C42.2157 10.3207 42.6943 10.646 43.4307 11.1777H43.431C43.435 11.1801 43.4408 11.1836 43.4477 11.1877C44.1632 11.6157 44.5293 12.2372 44.6635 12.471C44.7928 12.6965 45.1578 13.3498 45.1663 14.1986C45.1801 15.5929 44.2209 16.8217 43.1336 17.3859C42.4181 17.757 41.7669 17.7774 41.0727 17.7992C39.7955 17.8391 38.7716 17.5306 38.1489 17.2873C38.7828 18.1299 40.7391 19.8605 43.7455 21.3792C46.9715 23.0088 50.0538 21.8772 50.5578 21.6826V15.9534C50.5578 15.9534 54.8135 13.1198 52.0153 9.24183C52.0153 9.24183 51.2871 11.6997 49.2176 11.66C47.1483 11.6205 45.9855 9.18692 48.3702 7.525C48.3702 7.525 47.1285 5.34846 43.6798 4.73522C40.3054 4.13516 40.7225 1.39414 40.7418 1.27668C40.7103 1.43478 39.6645 6.76288 42.5216 7.55612C42.5219 7.55642 43.1336 7.86329 42.5216 7.86329Z" fill="#FFC638"/>
<path d="M42.5216 7.86329C42.9466 7.95071 43.5439 8.07253 43.7455 8.47763C44.0515 9.09196 43.6486 9.39923 43.1336 9.39923C42.9588 9.39923 42.5216 9.09196 42.5216 8.47763C42.5216 8.47763 41.8104 8.80739 42.0501 9.70302C42.2157 10.3207 42.6943 10.646 43.4307 11.1777H43.431C43.435 11.1801 43.4408 11.1836 43.4477 11.1877C44.1632 11.6157 44.5293 12.2372 44.6635 12.471C44.7928 12.6965 45.1578 13.3498 45.1663 14.1986C45.1801 15.5929 44.2209 16.8217 43.1336 17.3859C42.4181 17.757 41.7669 17.7774 41.0727 17.7992C39.7955 17.8391 38.7716 17.5306 38.1489 17.2873C38.7828 18.1299 40.7391 19.8605 43.7455 21.3792C46.9715 23.0088 50.0538 21.8772 50.5578 21.6826V15.9534C50.5578 15.9534 54.8135 13.1198 52.0153 9.24183C52.0153 9.24183 51.2871 11.6997 49.2176 11.66C47.1483 11.6205 45.9855 9.18692 48.3702 7.525C48.3702 7.525 47.1285 5.34846 43.6798 4.73522C40.3054 4.13516 40.7225 1.39414 40.7418 1.27668C40.7103 1.43478 39.6645 6.76288 42.5216 7.55612C42.5219 7.55642 43.1336 7.86329 42.5216 7.86329Z" stroke="#FFC638" stroke-width="0.170209" stroke-miterlimit="10" stroke-linecap="round" stroke-linejoin="round"/>
<path d="M33.6939 26.6239L34.0679 36.1464C33.8533 36.4383 33.5643 36.7789 33.184 37.1174C32.8969 37.3729 32.6173 37.5742 32.368 37.7317C32.6476 37.9236 33.0278 38.2298 33.388 38.6874C33.7505 39.1482 33.9598 39.5938 34.0808 39.9124C33.9789 43.189 33.8769 46.4655 33.7748 49.7422L29.8184 37.7317L33.6939 26.6239Z" fill="#FFC638"/>
<path d="M33.6939 26.6239L34.0679 36.1464C33.8533 36.4383 33.5643 36.7789 33.184 37.1174C32.8969 37.3729 32.6173 37.5742 32.368 37.7317C32.6476 37.9236 33.0278 38.2298 33.388 38.6874C33.7505 39.1482 33.9598 39.5938 34.0808 39.9124C33.9789 43.189 33.8769 46.4655 33.7748 49.7422L29.8184 37.7317L33.6939 26.6239Z" stroke="#FFC638" stroke-width="0.170209" stroke-miterlimit="10" stroke-linecap="round" stroke-linejoin="round"/>
<path d="M38.1594 26.6239L37.7854 36.1464C37.9999 36.4383 38.2889 36.7789 38.6692 37.1174C38.9563 37.3729 39.2359 37.5742 39.4852 37.7317C39.2056 37.9236 38.8254 38.2298 38.4652 38.6874C38.1027 39.1482 37.8935 39.5938 37.7725 39.9124C37.8743 43.189 37.9763 46.4655 38.0784 49.7422L42.0349 37.7317L38.1594 26.6239Z" fill="#FFC638"/>
<path d="M38.1594 26.6239L37.7854 36.1464C37.9999 36.4383 38.2889 36.7789 38.6692 37.1174C38.9563 37.3729 39.2359 37.5742 39.4852 37.7317C39.2056 37.9236 38.8254 38.2298 38.4652 38.6874C38.1027 39.1482 37.8935 39.5938 37.7725 39.9124C37.8743 43.189 37.9763 46.4655 38.0784 49.7422L42.0349 37.7317L38.1594 26.6239Z" stroke="#FFC638" stroke-width="0.170209" stroke-miterlimit="10" stroke-linecap="round" stroke-linejoin="round"/>
<path d="M57.1361 27.7066L68.865 31.7695C68.9778 31.6484 69.2434 31.3381 69.4766 30.8821C70.0498 29.7602 71.2924 27.909 68.7079 25.6625C68.7079 25.6625 69.3485 29.4265 66.848 30.1224C66.5597 30.203 66.2177 30.2404 65.8141 30.2241C65.8141 30.2241 65.9644 30.1394 66.1643 29.925C66.5923 29.467 68.1222 28.2977 68.028 26.2085C68.028 26.2085 65.6435 28.3356 64.1194 28.083L64.1208 28.0769C63.9569 28.0506 63.8012 28.0008 63.6563 27.9315C63.6533 27.9301 63.6502 27.9288 63.6472 27.927C63.0709 27.6472 62.6735 27.0543 62.6735 26.3683C62.6735 25.4123 63.4456 24.6372 64.3978 24.6372C64.5916 24.6372 64.7779 24.6692 64.9517 24.7283C65.2593 23.774 65.3276 21.4763 60.6704 18.7489C60.6704 18.7489 58.2944 16.7901 57.9989 15.2867C57.9989 15.2867 57.1384 20.3711 58.8944 23.1016C60.6506 25.8321 55.8391 26.9031 56.843 22.5907C56.8101 22.6432 54.3452 25.1089 56.177 26.9199" fill="#FFC638"/>
<path d="M57.1361 27.7066L68.865 31.7695C68.9778 31.6484 69.2434 31.3381 69.4766 30.8821C70.0498 29.7602 71.2924 27.909 68.7079 25.6625C68.7079 25.6625 69.3485 29.4265 66.848 30.1224C66.5597 30.203 66.2177 30.2404 65.8141 30.2241C65.8141 30.2241 65.9644 30.1394 66.1643 29.925C66.5923 29.467 68.1222 28.2977 68.028 26.2085C68.028 26.2085 65.6435 28.3356 64.1194 28.083L64.1208 28.0769C63.9569 28.0506 63.8012 28.0008 63.6563 27.9315C63.6533 27.9301 63.6502 27.9288 63.6472 27.927C63.0709 27.6472 62.6735 27.0543 62.6735 26.3683C62.6735 25.4123 63.4456 24.6372 64.3978 24.6372C64.5916 24.6372 64.7779 24.6692 64.9517 24.7283C65.2593 23.774 65.3276 21.4763 60.6704 18.7489C60.6704 18.7489 58.2944 16.7901 57.9989 15.2867C57.9989 15.2867 57.1384 20.3711 58.8944 23.1016C60.6506 25.8321 55.8391 26.9031 56.843 22.5907C56.8101 22.6432 54.3452 25.1089 56.177 26.9199" stroke="#FFC638" stroke-width="0.170209" stroke-miterlimit="10" stroke-linecap="round" stroke-linejoin="round"/>
<path d="M36.5413 37.6751C36.0363 36.9177 35.8948 36.1354 35.8564 35.6123C35.818 36.1354 35.6765 36.9177 35.1715 37.6751C35.061 37.8407 34.945 37.9875 34.8291 38.117C34.945 38.2621 35.061 38.4265 35.1715 38.612C35.6765 39.4601 35.818 40.3362 35.8564 40.9219C35.8948 40.3362 36.0363 39.4601 36.5413 38.612C36.6517 38.4265 36.7677 38.2621 36.8837 38.117C36.7677 37.9875 36.6517 37.8407 36.5413 37.6751Z" fill="#FFC638"/>
<path d="M36.5413 37.6751C36.0363 36.9177 35.8948 36.1354 35.8564 35.6123C35.818 36.1354 35.6765 36.9177 35.1715 37.6751C35.061 37.8407 34.945 37.9875 34.8291 38.117C34.945 38.2621 35.061 38.4265 35.1715 38.612C35.6765 39.4601 35.818 40.3362 35.8564 40.9219C35.8948 40.3362 36.0363 39.4601 36.5413 38.612C36.6517 38.4265 36.7677 38.2621 36.8837 38.117C36.7677 37.9875 36.6517 37.8407 36.5413 37.6751Z" stroke="#FFC638" stroke-width="0.170209" stroke-miterlimit="10" stroke-linecap="round" stroke-linejoin="round"/>
<path d="M35.8577 16.1289C35.7847 15.8165 35.5964 15.2372 35.082 14.6365C34.5673 14.0352 33.9853 13.7155 33.6885 13.5961C33.9389 13.3682 34.1801 13.1091 34.4116 12.8206C35.4779 11.4917 35.7766 7.73012 35.8577 6.81249C35.9389 7.73012 36.2376 11.4917 37.3039 12.8206C37.5372 13.1114 37.7823 13.3689 38.027 13.5961C37.7873 13.655 37.0081 13.8783 36.4304 14.6365C35.9709 15.2394 35.8807 15.8631 35.8577 16.1289Z" fill="#FFC638"/>
<path d="M35.8577 16.1289C35.7847 15.8165 35.5964 15.2372 35.082 14.6365C34.5673 14.0352 33.9853 13.7155 33.6885 13.5961C33.9389 13.3682 34.1801 13.1091 34.4116 12.8206C35.4779 11.4917 35.7766 7.73012 35.8577 6.81249C35.9389 7.73012 36.2376 11.4917 37.3039 12.8206C37.5372 13.1114 37.7823 13.3689 38.027 13.5961C37.7873 13.655 37.0081 13.8783 36.4304 14.6365C35.9709 15.2394 35.8807 15.8631 35.8577 16.1289Z" stroke="#FFC638" stroke-width="0.170209" stroke-miterlimit="10" stroke-linecap="round" stroke-linejoin="round"/>
<path d="M36.6738 2.95626C36.1197 2.2658 35.9645 1.55245 35.9223 1.07569C35.8802 1.55245 35.725 2.2658 35.1709 2.95626C35.1697 2.95785 35.1684 2.95933 35.1672 2.96082C34.9773 3.19672 35.3804 4.05469 35.9367 4.05469C36.4931 4.05469 36.8674 3.19672 36.6774 2.96082C36.6761 2.95933 36.6749 2.95785 36.6738 2.95626Z" fill="#FFC638"/>
<path d="M36.6738 2.95626C36.1197 2.2658 35.9645 1.55245 35.9223 1.07569C35.8802 1.55245 35.725 2.2658 35.1709 2.95626C35.1697 2.95785 35.1684 2.95933 35.1672 2.96082C34.9773 3.19672 35.3804 4.05469 35.9367 4.05469C36.4931 4.05469 36.8674 3.19672 36.6774 2.96082C36.6761 2.95933 36.6749 2.95785 36.6738 2.95626Z" stroke="#FFC638" stroke-width="0.170209" stroke-miterlimit="10" stroke-linecap="round" stroke-linejoin="round"/>
<path d="M56.4336 73.8725C56.1119 74.3116 55.763 74.6041 55.5101 74.7846C56.7062 74.5781 57.7077 75.7724 57.7077 76.9908C57.7077 78.209 56.7238 79.1967 55.5101 79.1967C54.7401 79.1967 54.0624 78.7989 53.67 78.1966C53.6889 78.257 55.7564 84.9122 52.7549 86.9998C52.7549 86.9998 56.933 87.1382 61.6625 80.5102C66.3922 73.8824 69.6243 77.3447 69.6243 77.3447V67.3795C69.6243 67.3795 70.2943 65.6518 71.5689 65.2692C71.5689 65.2692 70.0383 64.8208 69.6243 62.9808V48.7157C69.6243 48.7157 70.2747 45.6491 71.6937 45.1741C71.6937 45.1741 69.8608 44.8378 69.6243 43.3738C69.3879 41.9097 69.6243 32.0766 69.6243 32.0766C69.6243 32.0766 72.6174 29.2021 68.6564 25.7595C68.6564 25.7595 70.531 30.6324 66.629 30.474C66.629 30.474 68.1179 29.3508 67.98 26.284C67.98 26.284 66.4584 28.5856 64.9342 28.3327L64.9355 28.3267C64.7719 28.3005 64.6159 28.2506 64.4711 28.1813C64.468 28.18 64.4651 28.1785 64.4621 28.177C63.8857 27.8969 63.4885 27.3041 63.4885 26.618C63.4885 25.662 64.2604 24.8869 65.2128 24.8869C65.4066 24.8869 65.5928 24.9189 65.7665 24.9781C66.074 24.0239 66.1424 21.726 61.4852 18.9986C61.4852 18.9986 58.2336 16.8619 57.938 15.3583C57.938 15.3583 57.9532 20.6211 59.7095 23.3513C61.4656 26.0818 55.8097 27.0117 56.8146 22.6985C56.8146 22.6985 55.1415 25.3402 56.9919 27.1698V31.2061C56.9919 31.2061 56.9919 32.1557 55.7701 32.9274C55.7701 32.9274 57.1496 34.1541 56.9525 34.708C56.7555 35.2619 56.9525 42.0086 56.9525 42.0086C56.9525 42.0086 58.8354 42.8794 60.8963 44.7032C61.0533 44.842 61.2115 44.9866 61.37 45.137C62.5219 46.2283 63.6883 47.6145 64.5794 49.3094V53.8994C64.5794 53.8994 64.5596 54.7503 62.7071 54.9481C62.7071 54.9481 64.5794 55.4823 64.5794 57.5596V73.9813C64.5794 73.9813 62.8844 73.6845 60.9531 75.3663V49.1709C60.9531 49.1709 60.8307 49.0083 60.6034 48.7506C60.4777 48.6075 60.3194 48.4352 60.1321 48.2451C59.4452 47.5471 58.3668 46.6101 57.0511 46.0052C55.6748 45.3723 54.6783 45.027 54.6475 45.0164C54.6966 45.0512 57.0511 46.7219 57.0511 49.0125V72.6358C56.9576 72.9443 56.7801 73.3996 56.4336 73.8725ZM63.3684 33.2464L63.7921 33.7176C64.3082 34.3491 64.5794 34.9058 64.5794 34.9058V42.5231C63.8402 41.1141 63.0802 40.4043 62.448 40.0546C62.2694 39.9556 62.1012 39.8856 61.9463 39.8365C61.3486 39.6477 60.9531 39.773 60.9531 39.773V31.9577C61.9563 32.0774 62.7688 32.6425 63.3684 33.2464ZM42.1585 51.5254L42.4974 51.5243L42.5093 40.4629C42.5048 38.9938 42.5076 37.249 42.5144 35.4769C42.5317 30.9027 42.5738 26.149 42.58 25.5012C43.074 25.0697 43.4732 24.5213 44.4692 24.083C45.2515 23.7389 45.9664 23.5621 46.5268 23.4679V31.5997C46.5268 31.5997 46.1323 33.4987 45.0883 34.3892C45.0883 34.3892 46.7042 34.5278 46.5268 36.6445L46.6062 54.433C46.6062 54.433 41.7464 53.979 38.14 57.5996C38.14 57.5996 38.1683 61.1844 38.242 63.0264C38.242 63.0264 45.4066 57.5177 46.5301 61.0794L46.4415 66.8198C45.3263 67.7129 44.4083 69.8298 44.404 69.9008C44.7034 69.5885 45.124 69.3946 45.5901 69.3946C46.2555 69.3946 46.8286 69.7902 47.0893 70.3599C47.0928 70.3605 47.0942 70.3609 47.0942 70.3609C48.0361 71.666 44.7809 77.7063 44.7534 77.7577C44.8078 77.7356 52.215 74.6877 51.2727 67.9068C51.9523 67.9068 52.3072 67.4516 52.4919 66.9969C52.6768 66.5416 52.6918 66.0866 52.6918 66.0866C51.2529 66.3041 51.2727 64.8993 51.2727 64.8993V60.8237C51.2727 60.4871 51.3713 42.6612 51.2727 40.6034C51.1741 38.546 53.065 37.7343 53.065 37.7343C51.5668 37.2398 51.2727 35.2022 51.2727 35.2022V16.7626C51.2727 16.7626 54.7805 13.2802 51.9822 9.40227C51.9822 9.40227 52.002 12.5088 49.9325 12.4689C47.8632 12.4293 46.7004 9.99609 49.0849 8.33388C49.0849 8.33388 47.8434 6.15773 44.3948 5.54439C40.9461 4.93075 40.7094 2.08209 40.7094 2.08209C40.7094 2.08209 40.7867 7.40147 43.6873 8.20631C43.6873 8.20661 43.688 8.2066 43.6883 8.2066C44.1132 8.29393 44.4332 8.67147 44.4332 9.12405C44.4332 9.64144 44.0154 10.0606 43.5003 10.0606C43.1103 10.0606 42.7235 9.90768 42.4885 9.55987C42.4706 9.59912 42.3447 9.88309 42.4885 10.1743C42.581 10.3612 42.7945 10.4142 42.7945 10.4815C42.7945 10.7886 43.7124 11.403 43.7124 11.403C43.8128 11.462 43.8981 11.5262 43.9709 11.5959C44.9707 12.3351 45.6193 13.5253 45.6193 14.8677C45.6193 17.1107 43.808 18.9292 41.5737 18.9292C40.6972 18.9292 39.9418 18.5879 39.2232 18.1732C39.2279 18.1442 38.276 17.6323 38.072 17.4616L38.0795 35.9736C38.1311 36.2121 38.8539 36.8138 39.3639 37.1893C39.8585 37.5534 40.6222 37.8716 40.8512 37.9504C40.8512 37.9504 38.1118 38.7668 38.1118 41.3191C38.1118 44.152 37.7943 54.2207 37.8 54.2207C37.9085 54.037 39.148 51.7837 42.1585 51.5254ZM33.8938 54.2207C33.8995 54.2207 33.582 44.152 33.582 41.3191C33.582 38.7668 30.8425 37.9504 30.8425 37.9504C31.0717 37.8716 31.8353 37.5534 32.3299 37.1893C32.8398 36.8138 33.5626 36.2121 33.6143 35.9736L33.6218 17.4616C33.4178 17.6323 32.4659 18.1442 32.4706 18.1732C31.752 18.5879 30.9965 18.9292 30.1202 18.9292C27.8858 18.9292 26.0744 17.1107 26.0744 14.8677C26.0744 13.5253 26.7231 12.3351 27.723 11.5959C27.7957 11.5262 27.881 11.462 27.9813 11.403C27.9813 11.403 28.8993 10.7886 28.8993 10.4815C28.8993 10.4142 29.1127 10.3612 29.2052 10.1743C29.349 9.88309 29.2233 9.59912 29.2052 9.55987C28.9704 9.90768 28.5834 10.0606 28.1935 10.0606C27.6784 10.0606 27.2606 9.64144 27.2606 9.12405C27.2606 8.67147 27.5805 8.29393 28.0055 8.2066C28.0059 8.2066 28.0065 8.20661 28.0065 8.20631C30.9071 7.40147 30.9842 2.08209 30.9842 2.08209C30.9842 2.08209 30.7477 4.93075 27.299 5.54439C23.8504 6.15773 22.6088 8.33388 22.6088 8.33388C24.9934 9.99609 23.8306 12.4293 21.7613 12.4689C19.6919 12.5088 19.7116 9.40227 19.7116 9.40227C16.9133 13.2802 20.4211 16.7626 20.4211 16.7626V35.2022C20.4211 35.2022 20.127 37.2398 18.6288 37.7343C18.6288 37.7343 20.5197 38.546 20.4211 40.6034C20.3225 42.6612 20.4211 60.4871 20.4211 60.8237V64.8993C20.4211 64.8993 20.4408 66.3041 19.0021 66.0866C19.0021 66.0866 19.017 66.5416 19.202 66.9969C19.3865 67.4516 19.7415 67.9068 20.4211 67.9068C19.4787 74.6877 26.886 77.7356 26.9404 77.7577C26.9128 77.7063 23.6577 71.666 24.5997 70.3609C24.5997 70.3609 24.601 70.3605 24.6044 70.3599C24.8652 69.7902 25.4384 69.3946 26.1037 69.3946C26.5698 69.3946 26.9904 69.5885 27.2899 69.9008C27.2855 69.8298 26.3675 67.7129 25.2524 66.8198L25.1637 61.0794C26.2873 57.5177 33.4518 63.0264 33.4518 63.0264C33.5255 61.1844 33.5538 57.5996 33.5538 57.5996C29.9474 53.979 25.0874 54.433 25.0874 54.433L25.1671 36.6445C24.9896 34.5278 26.6055 34.3892 26.6055 34.3892C25.5614 33.4987 25.1671 31.5997 25.1671 31.5997V23.4679C25.7273 23.5621 26.4423 23.7389 27.2245 24.083C28.2207 24.5213 28.6198 25.0697 29.1138 25.5012C29.1199 26.149 29.1621 30.9027 29.1794 35.4769C29.1862 37.249 29.1889 38.9938 29.1845 40.4629L29.1965 51.5243L29.5354 51.5254C32.5457 51.7837 33.7853 54.037 33.8938 54.2207ZM14.6427 72.6358V49.0125C14.6427 46.7219 16.9972 45.0512 17.0464 45.0164C17.0155 45.027 16.0189 45.3723 14.6427 46.0052C13.3269 46.6101 12.2486 47.5471 11.5617 48.2451C11.3744 48.4352 11.2161 48.6075 11.0902 48.7506C10.8632 49.0083 10.7406 49.1709 10.7406 49.1709V75.3663C8.8094 73.6845 7.11442 73.9813 7.11442 73.9813V57.5596C7.11442 55.4823 8.98672 54.9481 8.98672 54.9481C7.13426 54.7503 7.11442 53.8994 7.11442 53.8994V49.3094C8.00535 47.6145 9.17193 46.2283 10.3238 45.137C10.4824 44.9866 10.6405 44.842 10.7975 44.7032C12.8584 42.8794 14.7412 42.0086 14.7412 42.0086C14.7412 42.0086 14.9383 35.2619 14.7412 34.708C14.5442 34.1541 15.9238 32.9274 15.9238 32.9274C14.7019 32.1557 14.7019 31.2061 14.7019 31.2061V27.1698C16.5523 25.3402 14.8792 22.6985 14.8792 22.6985C15.8841 27.0117 10.2281 26.0818 11.9844 23.3513C13.7406 20.6211 13.7558 15.3583 13.7558 15.3583C13.4602 16.8619 10.2086 18.9986 10.2086 18.9986C5.55134 21.726 5.61976 24.0239 5.9273 24.9781C6.10096 24.9189 6.28726 24.8869 6.48097 24.8869C7.43341 24.8869 8.20527 25.662 8.20527 26.618C8.20527 27.3041 7.80799 27.8969 7.23171 28.177C7.22865 28.1785 7.22578 28.18 7.22272 28.1813C7.07789 28.2506 6.92189 28.3005 6.7583 28.3267L6.75958 28.3327C5.2354 28.5856 3.71379 26.284 3.71379 26.284C3.57587 29.3508 5.0648 30.474 5.0648 30.474C1.16273 30.6324 3.0374 25.7595 3.0374 25.7595C-0.923609 29.2021 2.06946 32.0766 2.06946 32.0766C2.06946 32.0766 2.30592 41.9097 2.06946 43.3738C1.833 44.8378 0 45.1741 0 45.1741C1.41903 45.6491 2.06946 48.7157 2.06946 48.7157V62.9808C1.65549 64.8208 0.124894 65.2692 0.124894 65.2692C1.39949 65.6518 2.06946 67.3795 2.06946 67.3795V77.3447C2.06946 77.3447 5.30155 73.8824 10.0313 80.5102C14.7608 87.1382 18.939 86.9998 18.939 86.9998C15.9374 84.9122 18.005 78.257 18.0238 78.1966C17.6313 78.7989 16.9537 79.1967 16.1836 79.1967C14.97 79.1967 13.9862 78.209 13.9862 76.9908C13.9862 75.7724 14.9876 74.5781 16.1836 74.7846C15.9309 74.6041 15.582 74.3116 15.2602 73.8725C14.9137 73.3996 14.7362 72.9443 14.6427 72.6358ZM10.7406 31.9577V39.773C10.7406 39.773 10.3452 39.6477 9.74752 39.8365C9.59261 39.8856 9.42428 39.9556 9.24578 40.0546C8.61362 40.4043 7.8536 41.1141 7.11442 42.5231V34.9058C7.11442 34.9058 7.38563 34.3491 7.90168 33.7176L8.32543 33.2464C8.92491 32.6425 9.73745 32.0774 10.7406 31.9577Z" fill="white"/>
</svg>
