<svg width="36" height="36" viewBox="0 0 36 36" fill="none" xmlns="http://www.w3.org/2000/svg">
<path d="M25.5 3H10.5C6.35786 3 3 6.35786 3 10.5V25.5C3 29.6421 6.35786 33 10.5 33H25.5C29.6421 33 33 29.6421 33 25.5V10.5C33 6.35786 29.6421 3 25.5 3Z" stroke="#FFC23C" stroke-width="2" stroke-linecap="round" stroke-linejoin="round"/>
<path d="M24.001 17.0535C24.1861 18.3019 23.9729 19.5768 23.3917 20.697C22.8104 21.8172 21.8907 22.7256 20.7635 23.293C19.6362 23.8604 18.3587 24.0579 17.1127 23.8574C15.8667 23.6569 14.7157 23.0686 13.8233 22.1762C12.9309 21.2839 12.3426 20.1328 12.1421 18.8868C11.9416 17.6408 12.1391 16.3633 12.7065 15.2361C13.2739 14.1088 14.1823 13.1891 15.3025 12.6079C16.4227 12.0266 17.6977 11.8134 18.946 11.9985C20.2194 12.1873 21.3983 12.7807 22.3086 13.691C23.2188 14.6012 23.8122 15.7801 24.001 17.0535Z" stroke="#FFC23C" stroke-width="2" stroke-linecap="round" stroke-linejoin="round"/>
<path d="M26.25 9.75H26.2643" stroke="#FFC23C" stroke-width="2" stroke-linecap="round" stroke-linejoin="round"/>
</svg>
